# MagicaVoxel @ Ephtracy

# group
o 

# material
mtllib Monster4.mtl
usemtl palette

# normals
vn -1 0 0
vn 1 0 0
vn 0 0 1
vn 0 0 -1
vn 0 -1 0
vn 0 1 0

# texcoords
vt 0.841797 0.5
vt 0.865234 0.5
vt 0.986328 0.5
vt 0.994141 0.5

# verts
v -0.3 0 0.1
v -0.3 0 -0.2
v -0.3 0.2 0.1
v -0.3 0.2 -0.2
v -0.3 0.3 0.1
v -0.3 0.3 -0.2
v -0.3 0.6 0.1
v -0.3 0.6 -0.2
v -0.2 0 0.2
v -0.2 0 0.1
v -0.2 0 -0.2
v -0.2 0 -0.3
v -0.2 0.2 0.2
v -0.2 0.2 0.1
v -0.2 0.2 -0.2
v -0.2 0.2 -0.3
v -0.2 0.3 0.2
v -0.2 0.3 0.1
v -0.2 0.3 -0.2
v -0.2 0.3 -0.3
v -0.2 0.4 0.3
v -0.2 0.4 0.2
v -0.2 0.5 0.3
v -0.2 0.5 0.2
v -0.2 0.6 0.2
v -0.2 0.6 0.1
v -0.2 0.6 -0.2
v -0.2 0.6 -0.3
v -0.1 0 0.3
v -0.1 0 0.2
v -0.1 0 -0.3
v -0.1 0 -0.4
v -0.1 0.1 0.3
v -0.1 0.1 0.2
v -0.1 0.1 0
v -0.1 0.1 -0.1
v -0.1 0.2 0
v -0.1 0.2 -0.1
v -0.1 0.2 -0.3
v -0.1 0.2 -0.4
v -0.1 0.3 0.3
v -0.1 0.3 0.2
v -0.1 0.3 -0.3
v -0.1 0.3 -0.4
v -0.1 0.4 0.3
v -0.1 0.4 0.2
v -0.1 0.5 0.3
v -0.1 0.5 0.2
v -0.1 0.6 0.3
v -0.1 0.6 0.2
v -0.1 0.6 -0.3
v -0.1 0.6 -0.4
v 0.1 0.1 0.2
v 0.1 0.1 0.1
v 0.1 0.1 -0.2
v 0.1 0.1 -0.3
v 0.1 0.2 0.2
v 0.1 0.2 0.1
v 0.1 0.2 -0.2
v 0.1 0.2 -0.3
v 0.1 0.3 0.2
v 0.1 0.3 0.1
v 0.1 0.3 -0.2
v 0.1 0.3 -0.3
v 0.1 0.5 0.2
v 0.1 0.5 0.1
v 0.1 0.5 -0.2
v 0.1 0.5 -0.3
v 0.2 0.1 0.1
v 0.2 0.1 -0.2
v 0.2 0.2 0.1
v 0.2 0.2 -0.2
v 0.2 0.3 0.1
v 0.2 0.3 -0.2
v 0.2 0.5 0.1
v 0.2 0.5 -0.2
v -0.2 0.1 0.1
v -0.2 0.1 -0.2
v -0.2 0.2 0.1
v -0.2 0.2 -0.2
v -0.2 0.3 0.1
v -0.2 0.3 -0.2
v -0.2 0.5 0.1
v -0.2 0.5 -0.2
v -0.1 0.1 0.2
v -0.1 0.1 0.1
v -0.1 0.1 -0.2
v -0.1 0.1 -0.3
v -0.1 0.2 0.2
v -0.1 0.2 0.1
v -0.1 0.2 -0.2
v -0.1 0.2 -0.3
v -0.1 0.3 0.2
v -0.1 0.3 0.1
v -0.1 0.3 -0.2
v -0.1 0.3 -0.3
v -0.1 0.5 0.2
v -0.1 0.5 0.1
v -0.1 0.5 -0.2
v -0.1 0.5 -0.3
v 0.1 0 0.3
v 0.1 0 0.2
v 0.1 0 -0.3
v 0.1 0 -0.4
v 0.1 0.1 0.3
v 0.1 0.1 0.2
v 0.1 0.1 0
v 0.1 0.1 -0.1
v 0.1 0.2 0
v 0.1 0.2 -0.1
v 0.1 0.2 -0.3
v 0.1 0.2 -0.4
v 0.1 0.3 0.3
v 0.1 0.3 0.2
v 0.1 0.3 -0.3
v 0.1 0.3 -0.4
v 0.1 0.4 0.3
v 0.1 0.4 0.2
v 0.1 0.5 0.3
v 0.1 0.5 0.2
v 0.1 0.6 0.3
v 0.1 0.6 0.2
v 0.1 0.6 -0.3
v 0.1 0.6 -0.4
v 0.2 0 0.2
v 0.2 0 0.1
v 0.2 0 -0.2
v 0.2 0 -0.3
v 0.2 0.2 0.2
v 0.2 0.2 0.1
v 0.2 0.2 -0.2
v 0.2 0.2 -0.3
v 0.2 0.3 0.2
v 0.2 0.3 0.1
v 0.2 0.3 -0.2
v 0.2 0.3 -0.3
v 0.2 0.4 0.3
v 0.2 0.4 0.2
v 0.2 0.5 0.3
v 0.2 0.5 0.2
v 0.2 0.6 0.2
v 0.2 0.6 0.1
v 0.2 0.6 -0.2
v 0.2 0.6 -0.3
v 0.3 0 0.1
v 0.3 0 -0.2
v 0.3 0.2 0.1
v 0.3 0.2 -0.2
v 0.3 0.3 0.1
v 0.3 0.3 -0.2
v 0.3 0.6 0.1
v 0.3 0.6 -0.2
v -0.2 0.4 0.3
v -0.2 0.5 0.3
v -0.1 0 0.3
v -0.1 0.1 0.3
v -0.1 0.3 0.3
v -0.1 0.4 0.3
v -0.1 0.5 0.3
v -0.1 0.6 0.3
v 0.1 0 0.3
v 0.1 0.1 0.3
v 0.1 0.3 0.3
v 0.1 0.4 0.3
v 0.1 0.5 0.3
v 0.1 0.6 0.3
v 0.2 0.4 0.3
v 0.2 0.5 0.3
v -0.2 0 0.2
v -0.2 0.2 0.2
v -0.2 0.3 0.2
v -0.2 0.4 0.2
v -0.2 0.5 0.2
v -0.2 0.6 0.2
v -0.1 0 0.2
v -0.1 0.1 0.2
v -0.1 0.2 0.2
v -0.1 0.3 0.2
v -0.1 0.4 0.2
v -0.1 0.5 0.2
v -0.1 0.6 0.2
v 0.1 0 0.2
v 0.1 0.1 0.2
v 0.1 0.2 0.2
v 0.1 0.3 0.2
v 0.1 0.4 0.2
v 0.1 0.5 0.2
v 0.1 0.6 0.2
v 0.2 0 0.2
v 0.2 0.2 0.2
v 0.2 0.3 0.2
v 0.2 0.4 0.2
v 0.2 0.5 0.2
v 0.2 0.6 0.2
v -0.3 0 0.1
v -0.3 0.2 0.1
v -0.3 0.3 0.1
v -0.3 0.6 0.1
v -0.2 0 0.1
v -0.2 0.2 0.1
v -0.2 0.3 0.1
v -0.2 0.6 0.1
v 0.2 0 0.1
v 0.2 0.2 0.1
v 0.2 0.3 0.1
v 0.2 0.6 0.1
v 0.3 0 0.1
v 0.3 0.2 0.1
v 0.3 0.3 0.1
v 0.3 0.6 0.1
v -0.1 0.1 0
v -0.1 0.2 0
v 0.1 0.1 0
v 0.1 0.2 0
v -0.2 0.1 -0.2
v -0.2 0.2 -0.2
v -0.2 0.3 -0.2
v -0.2 0.5 -0.2
v -0.1 0.1 -0.2
v -0.1 0.2 -0.2
v -0.1 0.3 -0.2
v -0.1 0.5 -0.2
v 0.1 0.1 -0.2
v 0.1 0.2 -0.2
v 0.1 0.3 -0.2
v 0.1 0.5 -0.2
v 0.2 0.1 -0.2
v 0.2 0.2 -0.2
v 0.2 0.3 -0.2
v 0.2 0.5 -0.2
v -0.1 0.1 -0.3
v -0.1 0.2 -0.3
v -0.1 0.3 -0.3
v -0.1 0.5 -0.3
v 0.1 0.1 -0.3
v 0.1 0.2 -0.3
v 0.1 0.3 -0.3
v 0.1 0.5 -0.3
v -0.1 0.3 0.2
v -0.1 0.5 0.2
v 0.1 0.3 0.2
v 0.1 0.5 0.2
v -0.2 0.1 0.1
v -0.2 0.2 0.1
v -0.2 0.3 0.1
v -0.2 0.5 0.1
v -0.1 0.1 0.1
v -0.1 0.2 0.1
v -0.1 0.3 0.1
v -0.1 0.5 0.1
v 0.1 0.1 0.1
v 0.1 0.2 0.1
v 0.1 0.3 0.1
v 0.1 0.5 0.1
v 0.2 0.1 0.1
v 0.2 0.2 0.1
v 0.2 0.3 0.1
v 0.2 0.5 0.1
v -0.1 0.1 -0.1
v -0.1 0.2 -0.1
v 0.1 0.1 -0.1
v 0.1 0.2 -0.1
v -0.3 0 -0.2
v -0.3 0.2 -0.2
v -0.3 0.3 -0.2
v -0.3 0.6 -0.2
v -0.2 0 -0.2
v -0.2 0.2 -0.2
v -0.2 0.3 -0.2
v -0.2 0.6 -0.2
v 0.2 0 -0.2
v 0.2 0.2 -0.2
v 0.2 0.3 -0.2
v 0.2 0.6 -0.2
v 0.3 0 -0.2
v 0.3 0.2 -0.2
v 0.3 0.3 -0.2
v 0.3 0.6 -0.2
v -0.2 0 -0.3
v -0.2 0.2 -0.3
v -0.2 0.3 -0.3
v -0.2 0.6 -0.3
v -0.1 0 -0.3
v -0.1 0.2 -0.3
v -0.1 0.3 -0.3
v -0.1 0.6 -0.3
v 0.1 0 -0.3
v 0.1 0.2 -0.3
v 0.1 0.3 -0.3
v 0.1 0.6 -0.3
v 0.2 0 -0.3
v 0.2 0.2 -0.3
v 0.2 0.3 -0.3
v 0.2 0.6 -0.3
v -0.1 0 -0.4
v -0.1 0.2 -0.4
v -0.1 0.3 -0.4
v -0.1 0.6 -0.4
v 0.1 0 -0.4
v 0.1 0.2 -0.4
v 0.1 0.3 -0.4
v 0.1 0.6 -0.4
v -0.1 0 0.3
v 0.1 0 0.3
v -0.2 0 0.2
v -0.1 0 0.2
v 0.1 0 0.2
v 0.2 0 0.2
v -0.3 0 0.1
v -0.2 0 0.1
v 0.2 0 0.1
v 0.3 0 0.1
v -0.3 0 -0.2
v -0.2 0 -0.2
v 0.2 0 -0.2
v 0.3 0 -0.2
v -0.2 0 -0.3
v -0.1 0 -0.3
v 0.1 0 -0.3
v 0.2 0 -0.3
v -0.1 0 -0.4
v 0.1 0 -0.4
v -0.1 0.3 0.3
v 0.1 0.3 0.3
v -0.1 0.3 0.2
v 0.1 0.3 0.2
v -0.2 0.4 0.3
v -0.1 0.4 0.3
v 0.1 0.4 0.3
v 0.2 0.4 0.3
v -0.2 0.4 0.2
v -0.1 0.4 0.2
v 0.1 0.4 0.2
v 0.2 0.4 0.2
v -0.1 0.5 0.2
v 0.1 0.5 0.2
v -0.2 0.5 0.1
v -0.1 0.5 0.1
v 0.1 0.5 0.1
v 0.2 0.5 0.1
v -0.2 0.5 -0.2
v -0.1 0.5 -0.2
v 0.1 0.5 -0.2
v 0.2 0.5 -0.2
v -0.1 0.5 -0.3
v 0.1 0.5 -0.3
v -0.1 0.1 0.3
v 0.1 0.1 0.3
v -0.1 0.1 0.2
v 0.1 0.1 0.2
v -0.2 0.1 0.1
v -0.1 0.1 0.1
v 0.1 0.1 0.1
v 0.2 0.1 0.1
v -0.1 0.1 0
v 0.1 0.1 0
v -0.1 0.1 -0.1
v 0.1 0.1 -0.1
v -0.2 0.1 -0.2
v -0.1 0.1 -0.2
v 0.1 0.1 -0.2
v 0.2 0.1 -0.2
v -0.1 0.1 -0.3
v 0.1 0.1 -0.3
v -0.1 0.2 0
v 0.1 0.2 0
v -0.1 0.2 -0.1
v 0.1 0.2 -0.1
v -0.2 0.5 0.3
v -0.1 0.5 0.3
v 0.1 0.5 0.3
v 0.2 0.5 0.3
v -0.2 0.5 0.2
v -0.1 0.5 0.2
v 0.1 0.5 0.2
v 0.2 0.5 0.2
v -0.1 0.6 0.3
v 0.1 0.6 0.3
v -0.2 0.6 0.2
v -0.1 0.6 0.2
v 0.1 0.6 0.2
v 0.2 0.6 0.2
v -0.3 0.6 0.1
v -0.2 0.6 0.1
v 0.2 0.6 0.1
v 0.3 0.6 0.1
v -0.3 0.6 -0.2
v -0.2 0.6 -0.2
v 0.2 0.6 -0.2
v 0.3 0.6 -0.2
v -0.2 0.6 -0.3
v -0.1 0.6 -0.3
v 0.1 0.6 -0.3
v 0.2 0.6 -0.3
v -0.1 0.6 -0.4
v 0.1 0.6 -0.4

# faces
f 3/4/1 2/4/1 1/4/1
f 4/4/1 2/4/1 3/4/1
f 5/2/1 4/2/1 3/2/1
f 6/2/1 4/2/1 5/2/1
f 7/4/1 6/4/1 5/4/1
f 8/4/1 6/4/1 7/4/1
f 13/4/1 10/4/1 9/4/1
f 14/4/1 10/4/1 13/4/1
f 15/4/1 12/4/1 11/4/1
f 16/4/1 12/4/1 15/4/1
f 17/2/1 14/2/1 13/2/1
f 18/2/1 14/2/1 17/2/1
f 19/2/1 16/2/1 15/2/1
f 20/2/1 16/2/1 19/2/1
f 22/4/1 18/4/1 17/4/1
f 23/3/1 22/3/1 21/3/1
f 24/4/1 18/4/1 22/4/1
f 24/3/1 22/3/1 23/3/1
f 25/4/1 18/4/1 24/4/1
f 26/4/1 18/4/1 25/4/1
f 27/4/1 20/4/1 19/4/1
f 28/4/1 20/4/1 27/4/1
f 33/4/1 30/4/1 29/4/1
f 34/4/1 30/4/1 33/4/1
f 37/1/1 36/1/1 35/1/1
f 38/1/1 36/1/1 37/1/1
f 39/4/1 32/4/1 31/4/1
f 40/4/1 32/4/1 39/4/1
f 43/2/1 40/2/1 39/2/1
f 44/2/1 40/2/1 43/2/1
f 45/4/1 42/4/1 41/4/1
f 46/4/1 42/4/1 45/4/1
f 49/4/1 48/4/1 47/4/1
f 50/4/1 48/4/1 49/4/1
f 51/4/1 44/4/1 43/4/1
f 52/4/1 44/4/1 51/4/1
f 57/4/1 54/4/1 53/4/1
f 58/4/1 54/4/1 57/4/1
f 59/4/1 56/4/1 55/4/1
f 60/4/1 56/4/1 59/4/1
f 61/2/1 58/2/1 57/2/1
f 62/2/1 58/2/1 61/2/1
f 63/2/1 60/2/1 59/2/1
f 64/2/1 60/2/1 63/2/1
f 65/4/1 62/4/1 61/4/1
f 66/4/1 62/4/1 65/4/1
f 67/4/1 64/4/1 63/4/1
f 68/4/1 64/4/1 67/4/1
f 71/4/1 70/4/1 69/4/1
f 72/4/1 70/4/1 71/4/1
f 73/2/1 72/2/1 71/2/1
f 74/2/1 72/2/1 73/2/1
f 75/4/1 74/4/1 73/4/1
f 76/4/1 74/4/1 75/4/1
f 77/4/2 78/4/2 79/4/2
f 79/4/2 78/4/2 80/4/2
f 79/2/2 80/2/2 81/2/2
f 81/2/2 80/2/2 82/2/2
f 81/4/2 82/4/2 83/4/2
f 83/4/2 82/4/2 84/4/2
f 85/4/2 86/4/2 89/4/2
f 89/4/2 86/4/2 90/4/2
f 87/4/2 88/4/2 91/4/2
f 91/4/2 88/4/2 92/4/2
f 89/2/2 90/2/2 93/2/2
f 93/2/2 90/2/2 94/2/2
f 91/2/2 92/2/2 95/2/2
f 95/2/2 92/2/2 96/2/2
f 93/4/2 94/4/2 97/4/2
f 97/4/2 94/4/2 98/4/2
f 95/4/2 96/4/2 99/4/2
f 99/4/2 96/4/2 100/4/2
f 101/4/2 102/4/2 105/4/2
f 105/4/2 102/4/2 106/4/2
f 107/1/2 108/1/2 109/1/2
f 109/1/2 108/1/2 110/1/2
f 103/4/2 104/4/2 111/4/2
f 111/4/2 104/4/2 112/4/2
f 111/2/2 112/2/2 115/2/2
f 115/2/2 112/2/2 116/2/2
f 113/4/2 114/4/2 117/4/2
f 117/4/2 114/4/2 118/4/2
f 119/4/2 120/4/2 121/4/2
f 121/4/2 120/4/2 122/4/2
f 115/4/2 116/4/2 123/4/2
f 123/4/2 116/4/2 124/4/2
f 125/4/2 126/4/2 129/4/2
f 129/4/2 126/4/2 130/4/2
f 127/4/2 128/4/2 131/4/2
f 131/4/2 128/4/2 132/4/2
f 129/2/2 130/2/2 133/2/2
f 133/2/2 130/2/2 134/2/2
f 131/2/2 132/2/2 135/2/2
f 135/2/2 132/2/2 136/2/2
f 133/4/2 134/4/2 138/4/2
f 137/3/2 138/3/2 139/3/2
f 138/4/2 134/4/2 140/4/2
f 139/3/2 138/3/2 140/3/2
f 140/4/2 134/4/2 141/4/2
f 141/4/2 134/4/2 142/4/2
f 135/4/2 136/4/2 143/4/2
f 143/4/2 136/4/2 144/4/2
f 145/4/2 146/4/2 147/4/2
f 147/4/2 146/4/2 148/4/2
f 147/2/2 148/2/2 149/2/2
f 149/2/2 148/2/2 150/2/2
f 149/4/2 150/4/2 151/4/2
f 151/4/2 150/4/2 152/4/2
f 158/3/3 154/3/3 153/3/3
f 159/3/3 154/3/3 158/3/3
f 161/4/3 156/4/3 155/4/3
f 162/4/3 156/4/3 161/4/3
f 163/4/3 160/4/3 159/4/3
f 163/4/3 158/4/3 157/4/3
f 163/4/3 159/4/3 158/4/3
f 164/4/3 160/4/3 163/4/3
f 165/4/3 160/4/3 164/4/3
f 166/4/3 160/4/3 165/4/3
f 167/3/3 165/3/3 164/3/3
f 168/3/3 165/3/3 167/3/3
f 175/4/3 170/4/3 169/4/3
f 176/4/3 170/4/3 175/4/3
f 177/2/3 171/2/3 170/2/3
f 177/4/3 170/4/3 176/4/3
f 178/4/3 172/4/3 171/4/3
f 178/2/3 171/2/3 177/2/3
f 179/4/3 172/4/3 178/4/3
f 180/4/3 174/4/3 173/4/3
f 181/4/3 174/4/3 180/4/3
f 189/4/3 183/4/3 182/4/3
f 189/4/3 184/4/3 183/4/3
f 190/2/3 185/2/3 184/2/3
f 190/4/3 184/4/3 189/4/3
f 191/4/3 186/4/3 185/4/3
f 191/2/3 185/2/3 190/2/3
f 192/4/3 186/4/3 191/4/3
f 193/4/3 188/4/3 187/4/3
f 194/4/3 188/4/3 193/4/3
f 199/4/3 196/4/3 195/4/3
f 200/2/3 197/2/3 196/2/3
f 200/4/3 196/4/3 199/4/3
f 201/4/3 198/4/3 197/4/3
f 201/2/3 197/2/3 200/2/3
f 202/4/3 198/4/3 201/4/3
f 207/4/3 204/4/3 203/4/3
f 208/2/3 205/2/3 204/2/3
f 208/4/3 204/4/3 207/4/3
f 209/4/3 206/4/3 205/4/3
f 209/2/3 205/2/3 208/2/3
f 210/4/3 206/4/3 209/4/3
f 213/1/3 212/1/3 211/1/3
f 214/1/3 212/1/3 213/1/3
f 219/4/3 216/4/3 215/4/3
f 220/2/3 217/2/3 216/2/3
f 220/4/3 216/4/3 219/4/3
f 221/4/3 218/4/3 217/4/3
f 221/2/3 217/2/3 220/2/3
f 222/4/3 218/4/3 221/4/3
f 227/4/3 224/4/3 223/4/3
f 228/2/3 225/2/3 224/2/3
f 228/4/3 224/4/3 227/4/3
f 229/4/3 226/4/3 225/4/3
f 229/2/3 225/2/3 228/2/3
f 230/4/3 226/4/3 229/4/3
f 235/4/3 232/4/3 231/4/3
f 236/2/3 233/2/3 232/2/3
f 236/4/3 232/4/3 235/4/3
f 237/4/3 234/4/3 233/4/3
f 237/2/3 233/2/3 236/2/3
f 238/4/3 234/4/3 237/4/3
f 239/4/4 240/4/4 241/4/4
f 241/4/4 240/4/4 242/4/4
f 243/4/4 244/4/4 247/4/4
f 244/2/4 245/2/4 248/2/4
f 247/4/4 244/4/4 248/4/4
f 245/4/4 246/4/4 249/4/4
f 248/2/4 245/2/4 249/2/4
f 249/4/4 246/4/4 250/4/4
f 251/4/4 252/4/4 255/4/4
f 252/2/4 253/2/4 256/2/4
f 255/4/4 252/4/4 256/4/4
f 253/4/4 254/4/4 257/4/4
f 256/2/4 253/2/4 257/2/4
f 257/4/4 254/4/4 258/4/4
f 259/1/4 260/1/4 261/1/4
f 261/1/4 260/1/4 262/1/4
f 263/4/4 264/4/4 267/4/4
f 264/2/4 265/2/4 268/2/4
f 267/4/4 264/4/4 268/4/4
f 265/4/4 266/4/4 269/4/4
f 268/2/4 265/2/4 269/2/4
f 269/4/4 266/4/4 270/4/4
f 271/4/4 272/4/4 275/4/4
f 272/2/4 273/2/4 276/2/4
f 275/4/4 272/4/4 276/4/4
f 273/4/4 274/4/4 277/4/4
f 276/2/4 273/2/4 277/2/4
f 277/4/4 274/4/4 278/4/4
f 279/4/4 280/4/4 283/4/4
f 280/2/4 281/2/4 284/2/4
f 283/4/4 280/4/4 284/4/4
f 281/4/4 282/4/4 285/4/4
f 284/2/4 281/2/4 285/2/4
f 285/4/4 282/4/4 286/4/4
f 287/4/4 288/4/4 291/4/4
f 288/2/4 289/2/4 292/2/4
f 291/4/4 288/4/4 292/4/4
f 289/4/4 290/4/4 293/4/4
f 292/2/4 289/2/4 293/2/4
f 293/4/4 290/4/4 294/4/4
f 295/4/4 296/4/4 299/4/4
f 296/2/4 297/2/4 300/2/4
f 299/4/4 296/4/4 300/4/4
f 297/4/4 298/4/4 301/4/4
f 300/2/4 297/2/4 301/2/4
f 301/4/4 298/4/4 302/4/4
f 306/4/5 304/4/5 303/4/5
f 307/4/5 304/4/5 306/4/5
f 310/4/5 306/4/5 305/4/5
f 310/4/5 308/4/5 307/4/5
f 310/4/5 307/4/5 306/4/5
f 311/4/5 308/4/5 310/4/5
f 313/4/5 310/4/5 309/4/5
f 313/4/5 312/4/5 311/4/5
f 313/4/5 311/4/5 310/4/5
f 314/4/5 312/4/5 313/4/5
f 315/4/5 312/4/5 314/4/5
f 316/4/5 312/4/5 315/4/5
f 317/4/5 315/4/5 314/4/5
f 318/4/5 315/4/5 317/4/5
f 319/4/5 315/4/5 318/4/5
f 320/4/5 315/4/5 319/4/5
f 321/4/5 319/4/5 318/4/5
f 322/4/5 319/4/5 321/4/5
f 325/4/5 324/4/5 323/4/5
f 326/4/5 324/4/5 325/4/5
f 331/3/5 328/3/5 327/3/5
f 332/3/5 328/3/5 331/3/5
f 333/3/5 330/3/5 329/3/5
f 334/3/5 330/3/5 333/3/5
f 338/4/5 336/4/5 335/4/5
f 339/4/5 336/4/5 338/4/5
f 341/4/5 338/4/5 337/4/5
f 341/4/5 340/4/5 339/4/5
f 341/4/5 339/4/5 338/4/5
f 342/4/5 340/4/5 341/4/5
f 343/4/5 340/4/5 342/4/5
f 344/4/5 340/4/5 343/4/5
f 345/4/5 343/4/5 342/4/5
f 346/4/5 343/4/5 345/4/5
f 347/4/6 348/4/6 349/4/6
f 349/4/6 348/4/6 350/4/6
f 349/4/6 350/4/6 352/4/6
f 352/4/6 350/4/6 353/4/6
f 352/4/6 353/4/6 355/4/6
f 353/4/6 354/4/6 355/4/6
f 351/4/6 352/4/6 355/4/6
f 355/4/6 354/4/6 356/4/6
f 351/4/6 355/4/6 357/4/6
f 356/4/6 354/4/6 358/4/6
f 351/4/6 357/4/6 359/4/6
f 357/4/6 358/4/6 359/4/6
f 359/4/6 358/4/6 360/4/6
f 358/4/6 354/4/6 361/4/6
f 360/4/6 358/4/6 361/4/6
f 361/4/6 354/4/6 362/4/6
f 360/4/6 361/4/6 363/4/6
f 363/4/6 361/4/6 364/4/6
f 365/1/6 366/1/6 367/1/6
f 367/1/6 366/1/6 368/1/6
f 369/3/6 370/3/6 373/3/6
f 373/3/6 370/3/6 374/3/6
f 371/3/6 372/3/6 375/3/6
f 375/3/6 372/3/6 376/3/6
f 377/4/6 378/4/6 380/4/6
f 380/4/6 378/4/6 381/4/6
f 379/4/6 380/4/6 384/4/6
f 381/4/6 382/4/6 384/4/6
f 380/4/6 381/4/6 384/4/6
f 384/4/6 382/4/6 385/4/6
f 383/4/6 384/4/6 387/4/6
f 385/4/6 386/4/6 387/4/6
f 384/4/6 385/4/6 387/4/6
f 387/4/6 386/4/6 388/4/6
f 388/4/6 386/4/6 389/4/6
f 389/4/6 386/4/6 390/4/6
f 388/4/6 389/4/6 391/4/6
f 391/4/6 389/4/6 392/4/6
f 392/4/6 389/4/6 393/4/6
f 393/4/6 389/4/6 394/4/6
f 392/4/6 393/4/6 395/4/6
f 395/4/6 393/4/6 396/4/6
