# MagicaVoxel @ Ephtracy

# group
o 

# material
mtllib boss.mtl
usemtl palette

# normals
vn -1 0 0
vn 1 0 0
vn 0 0 1
vn 0 0 -1
vn 0 -1 0
vn 0 1 0

# texcoords
vt 0.0917969 0.5
vt 0.751953 0.5
vt 0.958984 0.5
vt 0.982422 0.5
vt 0.986328 0.5
vt 0.994141 0.5

# verts
v -1 0 0.8
v -1 0 0.5
v -1 0 0.3
v -1 0 -0.9
v -1 0.1 0.8
v -1 0.1 0.6
v -1 0.1 0.4
v -1 0.1 0.3
v -1 0.1 -0.9
v -1 0.1 -1
v -1 0.3 0.8
v -1 0.3 0.6
v -1 0.3 0.4
v -1 0.3 0.3
v -1 0.3 -0.9
v -1 0.3 -1
v -1 0.4 0.8
v -1 0.4 0.5
v -1 0.4 0.3
v -1 0.4 -0.9
v -0.9 0.1 0.5
v -0.9 0.1 0.4
v -0.9 0.1 0.3
v -0.9 0.1 -0.9
v -0.9 0.3 0.5
v -0.9 0.3 0.4
v -0.9 0.3 0.3
v -0.9 0.3 -0.9
v -0.7 0.4 0.3
v -0.7 0.4 -0.9
v -0.7 0.5 0.1
v -0.7 0.5 -5.96046e-08
v -0.7 0.5 -0.2
v -0.7 0.5 -0.3
v -0.7 0.5 -0.5
v -0.7 0.5 -0.6
v -0.7 0.6 0.3
v -0.7 0.6 0.1
v -0.7 0.6 -5.96046e-08
v -0.7 0.6 -0.2
v -0.7 0.6 -0.3
v -0.7 0.6 -0.5
v -0.7 0.6 -0.6
v -0.7 0.6 -0.9
v -0.4 0.5 0.3
v -0.4 0.5 -0.7
v -0.4 0.5 -0.8
v -0.4 0.5 -0.9
v -0.4 0.6 0.3
v -0.4 0.6 -0.7
v -0.4 0.6 -0.8
v -0.4 0.6 -0.9
v -0.3 0.6 0.3
v -0.3 0.6 -0.2
v -0.3 0.6 -0.4
v -0.3 0.9 0.3
v -0.3 0.9 0.2
v -0.3 1 0.2
v -0.3 1 0.1
v -0.3 1.1 0.1
v -0.3 1.1 -0.2
v -0.3 1.1 -0.4
v -0.2 0.6 -0.4
v -0.2 0.6 -0.5
v -0.2 1.1 -5.96046e-08
v -0.2 1.1 -0.2
v -0.2 1.1 -0.4
v -0.2 1.2 -5.96046e-08
v -0.2 1.2 -0.5
v -0.1 1.1 0.1
v -0.1 1.1 -5.96046e-08
v -0.1 1.2 0.1
v -0.1 1.2 -5.96046e-08
v 0.2 0.6 0.2
v 0.2 0.6 -0.2
v 0.2 0.6 -0.4
v 0.2 0.8 0.2
v 0.2 0.8 0.1
v 0.2 0.9 0.1
v 0.2 0.9 -5.96046e-08
v 0.2 1 -5.96046e-08
v 0.2 1 -0.2
v 0.2 1.1 -0.2
v 0.2 1.1 -0.4
v 0.6 0.5 0.3
v 0.6 0.5 -0.1
v 0.6 0.5 -0.2
v 0.6 0.5 -0.3
v 0.6 0.5 -0.4
v 0.6 0.5 -0.5
v 0.6 0.5 -0.6
v 0.6 0.5 -0.9
v 0.6 0.6 0.3
v 0.6 0.6 -0.1
v 0.6 0.6 -0.2
v 0.6 0.6 -0.3
v 0.6 0.6 -0.4
v 0.6 0.6 -0.5
v 0.6 0.6 -0.6
v 0.6 0.6 -0.9
v 0.7 0 0.3
v 0.7 0 -0.9
v 0.7 0.1 0.4
v 0.7 0.1 0.3
v 0.7 0.1 -0.9
v 0.7 0.1 -1
v 0.7 0.2 0.3
v 0.7 0.2 -0.9
v 0.7 0.3 0.4
v 0.7 0.3 0.3
v 0.7 0.3 0.2
v 0.7 0.3 -0.8
v 0.7 0.3 -0.9
v 0.7 0.3 -1
v 0.7 0.4 0.2
v 0.7 0.4 -0.8
v 0.8 0.1 0.3
v 0.8 0.1 -0.9
v 0.8 0.2 0.3
v 0.8 0.2 -0.9
v -0.8 0.1 0.3
v -0.8 0.1 -0.9
v -0.8 0.2 0.3
v -0.8 0.2 -0.9
v -0.7 0 0.3
v -0.7 0 -0.9
v -0.7 0.1 0.4
v -0.7 0.1 0.3
v -0.7 0.1 -0.9
v -0.7 0.1 -1
v -0.7 0.2 0.3
v -0.7 0.2 -0.9
v -0.7 0.3 0.4
v -0.7 0.3 0.3
v -0.7 0.3 0.2
v -0.7 0.3 -0.8
v -0.7 0.3 -0.9
v -0.7 0.3 -1
v -0.7 0.4 0.2
v -0.7 0.4 -0.8
v -0.6 0.5 0.3
v -0.6 0.5 0.1
v -0.6 0.5 -5.96046e-08
v -0.6 0.5 -0.2
v -0.6 0.5 -0.3
v -0.6 0.5 -0.5
v -0.6 0.5 -0.6
v -0.6 0.5 -0.9
v -0.6 0.6 0.3
v -0.6 0.6 0.1
v -0.6 0.6 -5.96046e-08
v -0.6 0.6 -0.2
v -0.6 0.6 -0.3
v -0.6 0.6 -0.5
v -0.6 0.6 -0.6
v -0.6 0.6 -0.9
v -0.2 0.6 0.2
v -0.2 0.6 -0.2
v -0.2 0.6 -0.4
v -0.2 0.8 0.2
v -0.2 0.8 0.1
v -0.2 0.9 0.1
v -0.2 0.9 -5.96046e-08
v -0.2 1 -5.96046e-08
v -0.2 1 -0.2
v -0.2 1.1 -0.2
v -0.2 1.1 -0.4
v 0.1 1.1 0.1
v 0.1 1.1 -5.96046e-08
v 0.1 1.2 0.1
v 0.1 1.2 -5.96046e-08
v 0.2 0.6 -0.4
v 0.2 0.6 -0.5
v 0.2 1.1 -5.96046e-08
v 0.2 1.1 -0.2
v 0.2 1.1 -0.4
v 0.2 1.2 -5.96046e-08
v 0.2 1.2 -0.5
v 0.3 0.6 0.3
v 0.3 0.6 -0.2
v 0.3 0.6 -0.4
v 0.3 0.9 0.3
v 0.3 0.9 0.2
v 0.3 1 0.2
v 0.3 1 0.1
v 0.3 1.1 0.1
v 0.3 1.1 -0.2
v 0.3 1.1 -0.4
v 0.4 0.5 0.3
v 0.4 0.5 -0.7
v 0.4 0.5 -0.8
v 0.4 0.5 -0.9
v 0.4 0.6 0.3
v 0.4 0.6 -0.7
v 0.4 0.6 -0.8
v 0.4 0.6 -0.9
v 0.7 0.4 0.3
v 0.7 0.4 -0.9
v 0.7 0.5 -0.1
v 0.7 0.5 -0.2
v 0.7 0.5 -0.3
v 0.7 0.5 -0.4
v 0.7 0.5 -0.5
v 0.7 0.5 -0.6
v 0.7 0.6 0.3
v 0.7 0.6 -0.1
v 0.7 0.6 -0.2
v 0.7 0.6 -0.3
v 0.7 0.6 -0.4
v 0.7 0.6 -0.5
v 0.7 0.6 -0.6
v 0.7 0.6 -0.9
v 0.9 0.1 0.5
v 0.9 0.1 0.4
v 0.9 0.1 0.3
v 0.9 0.1 -0.9
v 0.9 0.3 0.5
v 0.9 0.3 0.4
v 0.9 0.3 0.3
v 0.9 0.3 -0.9
v 1 0 0.8
v 1 0 0.5
v 1 0 0.3
v 1 0 -0.9
v 1 0.1 0.8
v 1 0.1 0.6
v 1 0.1 0.4
v 1 0.1 0.3
v 1 0.1 -0.9
v 1 0.1 -1
v 1 0.3 0.8
v 1 0.3 0.6
v 1 0.3 0.4
v 1 0.3 0.3
v 1 0.3 -0.9
v 1 0.3 -1
v 1 0.4 0.8
v 1 0.4 0.5
v 1 0.4 0.3
v 1 0.4 -0.9
v -1 0 0.8
v -1 0.1 0.8
v -1 0.3 0.8
v -1 0.4 0.8
v -0.6 0 0.8
v -0.6 0.1 0.8
v -0.6 0.3 0.8
v -0.6 0.4 0.8
v -0.5 0 0.8
v -0.5 0.1 0.8
v -0.5 0.3 0.8
v -0.5 0.4 0.8
v -0.1 0 0.8
v -0.1 0.1 0.8
v -0.1 0.3 0.8
v -0.1 0.4 0.8
v 0.1 0 0.8
v 0.1 0.1 0.8
v 0.1 0.3 0.8
v 0.1 0.4 0.8
v 0.5 0 0.8
v 0.5 0.1 0.8
v 0.5 0.3 0.8
v 0.5 0.4 0.8
v 0.6 0 0.8
v 0.6 0.1 0.8
v 0.6 0.3 0.8
v 0.6 0.4 0.8
v 1 0 0.8
v 1 0.1 0.8
v 1 0.3 0.8
v 1 0.4 0.8
v -1 0.1 0.6
v -1 0.3 0.6
v 1 0.1 0.6
v 1 0.3 0.6
v -1 0.1 0.4
v -1 0.3 0.4
v -0.9 0.1 0.4
v -0.9 0.3 0.4
v 0.9 0.1 0.4
v 0.9 0.3 0.4
v 1 0.1 0.4
v 1 0.3 0.4
v -1 0 0.3
v -1 0.1 0.3
v -1 0.3 0.3
v -1 0.4 0.3
v -0.7 0 0.3
v -0.7 0.1 0.3
v -0.7 0.2 0.3
v -0.7 0.3 0.3
v -0.7 0.4 0.3
v -0.7 0.6 0.3
v -0.6 0.5 0.3
v -0.6 0.6 0.3
v -0.4 0.4 0.3
v -0.4 0.5 0.3
v -0.4 0.6 0.3
v -0.3 0.6 0.3
v -0.3 0.9 0.3
v 0.3 0.6 0.3
v 0.3 0.9 0.3
v 0.4 0.4 0.3
v 0.4 0.5 0.3
v 0.4 0.6 0.3
v 0.6 0.5 0.3
v 0.6 0.6 0.3
v 0.7 0 0.3
v 0.7 0.1 0.3
v 0.7 0.2 0.3
v 0.7 0.3 0.3
v 0.7 0.4 0.3
v 0.7 0.6 0.3
v 1 0 0.3
v 1 0.1 0.3
v 1 0.3 0.3
v 1 0.4 0.3
v -0.3 0.9 0.2
v -0.3 1 0.2
v 0.3 0.9 0.2
v 0.3 1 0.2
v -0.3 1 0.1
v -0.3 1.1 0.1
v -0.1 1.1 0.1
v -0.1 1.2 0.1
v 0.1 1.1 0.1
v 0.1 1.2 0.1
v 0.3 1 0.1
v 0.3 1.1 0.1
v -0.2 1.1 -5.96046e-08
v -0.2 1.2 -5.96046e-08
v -0.1 1.1 -5.96046e-08
v -0.1 1.2 -5.96046e-08
v 0.1 1.1 -5.96046e-08
v 0.1 1.2 -5.96046e-08
v 0.2 1.1 -5.96046e-08
v 0.2 1.2 -5.96046e-08
v -0.2 0.6 -0.4
v -0.2 1.1 -0.4
v 0.2 0.6 -0.4
v 0.2 1.1 -0.4
v -0.7 0.3 -0.8
v -0.7 0.4 -0.8
v 0.7 0.3 -0.8
v 0.7 0.4 -0.8
v -1 0.1 -0.9
v -1 0.3 -0.9
v -0.9 0.1 -0.9
v -0.9 0.3 -0.9
v -0.8 0.1 -0.9
v -0.8 0.2 -0.9
v -0.7 0.1 -0.9
v -0.7 0.2 -0.9
v 0.7 0.1 -0.9
v 0.7 0.2 -0.9
v 0.8 0.1 -0.9
v 0.8 0.2 -0.9
v 0.9 0.1 -0.9
v 0.9 0.3 -0.9
v 1 0.1 -0.9
v 1 0.3 -0.9
v -1 0 0.5
v -1 0.4 0.5
v -0.9 0.1 0.5
v -0.9 0.3 0.5
v 0.9 0.1 0.5
v 0.9 0.3 0.5
v 1 0 0.5
v 1 0.4 0.5
v -0.7 0.1 0.4
v -0.7 0.3 0.4
v 0.7 0.1 0.4
v 0.7 0.3 0.4
v -1 0.1 0.3
v -1 0.3 0.3
v -0.9 0.1 0.3
v -0.9 0.3 0.3
v -0.8 0.1 0.3
v -0.8 0.2 0.3
v -0.7 0.1 0.3
v -0.7 0.2 0.3
v 0.7 0.1 0.3
v 0.7 0.2 0.3
v 0.8 0.1 0.3
v 0.8 0.2 0.3
v 0.9 0.1 0.3
v 0.9 0.3 0.3
v 1 0.1 0.3
v 1 0.3 0.3
v -0.7 0.3 0.2
v -0.7 0.4 0.2
v -0.2 0.6 0.2
v -0.2 0.8 0.2
v 0.2 0.6 0.2
v 0.2 0.8 0.2
v 0.7 0.3 0.2
v 0.7 0.4 0.2
v -0.2 0.8 0.1
v -0.2 0.9 0.1
v 0.2 0.8 0.1
v 0.2 0.9 0.1
v -0.2 0.9 -5.96046e-08
v -0.2 1 -5.96046e-08
v 0.2 0.9 -5.96046e-08
v 0.2 1 -5.96046e-08
v -0.2 1 -0.2
v -0.2 1.1 -0.2
v 0.2 1 -0.2
v 0.2 1.1 -0.2
v -0.3 0.6 -0.4
v -0.3 1.1 -0.4
v -0.2 0.6 -0.4
v -0.2 1.1 -0.4
v 0.2 0.6 -0.4
v 0.2 1.1 -0.4
v 0.3 0.6 -0.4
v 0.3 1.1 -0.4
v -0.2 0.6 -0.5
v -0.2 1.2 -0.5
v 0.2 0.6 -0.5
v 0.2 1.2 -0.5
v -1 0 -0.9
v -1 0.1 -0.9
v -1 0.3 -0.9
v -1 0.4 -0.9
v -0.7 0 -0.9
v -0.7 0.1 -0.9
v -0.7 0.2 -0.9
v -0.7 0.3 -0.9
v -0.7 0.4 -0.9
v -0.7 0.6 -0.9
v -0.6 0.5 -0.9
v -0.6 0.6 -0.9
v -0.4 0.5 -0.9
v -0.4 0.6 -0.9
v 0.4 0.5 -0.9
v 0.4 0.6 -0.9
v 0.6 0.5 -0.9
v 0.6 0.6 -0.9
v 0.7 0 -0.9
v 0.7 0.1 -0.9
v 0.7 0.2 -0.9
v 0.7 0.3 -0.9
v 0.7 0.4 -0.9
v 0.7 0.6 -0.9
v 1 0 -0.9
v 1 0.1 -0.9
v 1 0.3 -0.9
v 1 0.4 -0.9
v -1 0.1 -1
v -1 0.3 -1
v -0.7 0.1 -1
v -0.7 0.3 -1
v 0.7 0.1 -1
v 0.7 0.3 -1
v 1 0.1 -1
v 1 0.3 -1
v -1 0 0.8
v -0.6 0 0.8
v -0.5 0 0.8
v -0.1 0 0.8
v 0.1 0 0.8
v 0.5 0 0.8
v 0.6 0 0.8
v 1 0 0.8
v -0.6 0 0.7
v -0.5 0 0.7
v -0.1 0 0.7
v 0.1 0 0.7
v 0.5 0 0.7
v 0.6 0 0.7
v -1 0 0.5
v 1 0 0.5
v -1 0 0.3
v -0.7 0 0.3
v 0.7 0 0.3
v 1 0 0.3
v -1 0 -0.9
v -0.7 0 -0.9
v 0.7 0 -0.9
v 1 0 -0.9
v -0.9 0.1 0.5
v 0.9 0.1 0.5
v -1 0.1 0.4
v -0.9 0.1 0.4
v -0.7 0.1 0.4
v 0.7 0.1 0.4
v 0.9 0.1 0.4
v 1 0.1 0.4
v -1 0.1 0.3
v -0.7 0.1 0.3
v 0.7 0.1 0.3
v 1 0.1 0.3
v -1 0.1 -0.9
v -0.7 0.1 -0.9
v 0.7 0.1 -0.9
v 1 0.1 -0.9
v -1 0.1 -1
v -0.7 0.1 -1
v 0.7 0.1 -1
v 1 0.1 -1
v -0.8 0.2 0.3
v -0.7 0.2 0.3
v 0.7 0.2 0.3
v 0.8 0.2 0.3
v -0.8 0.2 -0.9
v -0.7 0.2 -0.9
v 0.7 0.2 -0.9
v 0.8 0.2 -0.9
v -1 0.3 0.8
v -0.6 0.3 0.8
v -0.5 0.3 0.8
v -0.1 0.3 0.8
v 0.1 0.3 0.8
v 0.5 0.3 0.8
v 0.6 0.3 0.8
v 1 0.3 0.8
v -0.6 0.3 0.7
v -0.5 0.3 0.7
v -0.1 0.3 0.7
v 0.1 0.3 0.7
v 0.5 0.3 0.7
v 0.6 0.3 0.7
v -1 0.3 0.6
v 1 0.3 0.6
v -1 0.3 0.3
v -0.9 0.3 0.3
v 0.9 0.3 0.3
v 1 0.3 0.3
v -1 0.3 -0.9
v -0.9 0.3 -0.9
v 0.9 0.3 -0.9
v 1 0.3 -0.9
v -0.7 0.4 0.2
v 0.7 0.4 0.2
v -0.7 0.4 -0.8
v 0.7 0.4 -0.8
v -0.2 0.8 0.2
v 0.2 0.8 0.2
v -0.2 0.8 0.1
v 0.2 0.8 0.1
v -0.2 0.9 0.1
v 0.2 0.9 0.1
v -0.2 0.9 -5.96046e-08
v 0.2 0.9 -5.96046e-08
v -0.2 1 -5.96046e-08
v 0.2 1 -5.96046e-08
v -0.2 1 -0.2
v 0.2 1 -0.2
v -0.2 1.1 -0.2
v 0.2 1.1 -0.2
v -0.2 1.1 -0.4
v 0.2 1.1 -0.4
v -1 0.1 0.8
v -0.6 0.1 0.8
v -0.5 0.1 0.8
v -0.1 0.1 0.8
v 0.1 0.1 0.8
v 0.5 0.1 0.8
v 0.6 0.1 0.8
v 1 0.1 0.8
v -0.6 0.1 0.7
v -0.5 0.1 0.7
v -0.1 0.1 0.7
v 0.1 0.1 0.7
v 0.5 0.1 0.7
v 0.6 0.1 0.7
v -1 0.1 0.6
v 1 0.1 0.6
v -1 0.1 0.3
v -0.9 0.1 0.3
v -0.8 0.1 0.3
v -0.7 0.1 0.3
v 0.7 0.1 0.3
v 0.8 0.1 0.3
v 0.9 0.1 0.3
v 1 0.1 0.3
v -1 0.1 -0.9
v -0.9 0.1 -0.9
v -0.8 0.1 -0.9
v -0.7 0.1 -0.9
v 0.7 0.1 -0.9
v 0.8 0.1 -0.9
v 0.9 0.1 -0.9
v 1 0.1 -0.9
v -0.9 0.3 0.5
v 0.9 0.3 0.5
v -1 0.3 0.4
v -0.9 0.3 0.4
v -0.7 0.3 0.4
v 0.7 0.3 0.4
v 0.9 0.3 0.4
v 1 0.3 0.4
v -1 0.3 0.3
v -0.7 0.3 0.3
v 0.7 0.3 0.3
v 1 0.3 0.3
v -0.7 0.3 0.2
v 0.7 0.3 0.2
v -0.7 0.3 -0.8
v 0.7 0.3 -0.8
v -1 0.3 -0.9
v -0.7 0.3 -0.9
v 0.7 0.3 -0.9
v 1 0.3 -0.9
v -1 0.3 -1
v -0.7 0.3 -1
v 0.7 0.3 -1
v 1 0.3 -1
v -1 0.4 0.8
v -0.6 0.4 0.8
v -0.5 0.4 0.8
v -0.1 0.4 0.8
v 0.1 0.4 0.8
v 0.5 0.4 0.8
v 0.6 0.4 0.8
v 1 0.4 0.8
v -0.6 0.4 0.7
v -0.5 0.4 0.7
v -0.1 0.4 0.7
v 0.1 0.4 0.7
v 0.5 0.4 0.7
v 0.6 0.4 0.7
v -1 0.4 0.5
v 1 0.4 0.5
v -1 0.4 0.3
v -0.7 0.4 0.3
v 0.7 0.4 0.3
v 1 0.4 0.3
v -1 0.4 -0.9
v -0.7 0.4 -0.9
v 0.7 0.4 -0.9
v 1 0.4 -0.9
v -0.6 0.5 0.3
v -0.4 0.5 0.3
v 0.4 0.5 0.3
v 0.6 0.5 0.3
v -0.6 0.5 0.1
v -0.6 0.5 -5.96046e-08
v 0.6 0.5 -0.1
v -0.6 0.5 -0.2
v 0.6 0.5 -0.2
v -0.6 0.5 -0.3
v 0.6 0.5 -0.3
v 0.6 0.5 -0.4
v -0.6 0.5 -0.5
v 0.6 0.5 -0.5
v -0.6 0.5 -0.6
v 0.6 0.5 -0.6
v -0.4 0.5 -0.7
v 0.4 0.5 -0.7
v -0.4 0.5 -0.8
v 0.4 0.5 -0.8
v -0.6 0.5 -0.9
v -0.4 0.5 -0.9
v 0.4 0.5 -0.9
v 0.6 0.5 -0.9
v -0.7 0.6 0.3
v -0.6 0.6 0.3
v -0.4 0.6 0.3
v -0.3 0.6 0.3
v 0.3 0.6 0.3
v 0.4 0.6 0.3
v 0.6 0.6 0.3
v 0.7 0.6 0.3
v -0.2 0.6 0.2
v 0.2 0.6 0.2
v -0.7 0.6 0.1
v -0.6 0.6 0.1
v -0.7 0.6 -5.96046e-08
v -0.6 0.6 -5.96046e-08
v 0.6 0.6 -0.1
v 0.7 0.6 -0.1
v -0.7 0.6 -0.2
v -0.6 0.6 -0.2
v -0.3 0.6 -0.2
v -0.2 0.6 -0.2
v 0.2 0.6 -0.2
v 0.3 0.6 -0.2
v 0.6 0.6 -0.2
v 0.7 0.6 -0.2
v -0.7 0.6 -0.3
v -0.6 0.6 -0.3
v 0.6 0.6 -0.3
v 0.7 0.6 -0.3
v -0.3 0.6 -0.4
v -0.2 0.6 -0.4
v 0.2 0.6 -0.4
v 0.3 0.6 -0.4
v 0.6 0.6 -0.4
v 0.7 0.6 -0.4
v -0.7 0.6 -0.5
v -0.6 0.6 -0.5
v -0.2 0.6 -0.5
v 0.2 0.6 -0.5
v 0.6 0.6 -0.5
v 0.7 0.6 -0.5
v -0.7 0.6 -0.6
v -0.6 0.6 -0.6
v 0.6 0.6 -0.6
v 0.7 0.6 -0.6
v -0.4 0.6 -0.7
v 0.4 0.6 -0.7
v -0.4 0.6 -0.8
v 0.4 0.6 -0.8
v -0.7 0.6 -0.9
v -0.6 0.6 -0.9
v -0.4 0.6 -0.9
v 0.4 0.6 -0.9
v 0.6 0.6 -0.9
v 0.7 0.6 -0.9
v -0.3 0.9 0.3
v 0.3 0.9 0.3
v -0.3 0.9 0.2
v 0.3 0.9 0.2
v -0.3 1 0.2
v 0.3 1 0.2
v -0.3 1 0.1
v 0.3 1 0.1
v -0.3 1.1 0.1
v -0.1 1.1 0.1
v 0.1 1.1 0.1
v 0.3 1.1 0.1
v -0.2 1.1 -5.96046e-08
v -0.1 1.1 -5.96046e-08
v 0.1 1.1 -5.96046e-08
v 0.2 1.1 -5.96046e-08
v -0.3 1.1 -0.2
v -0.2 1.1 -0.2
v 0.2 1.1 -0.2
v 0.3 1.1 -0.2
v -0.3 1.1 -0.4
v -0.2 1.1 -0.4
v 0.2 1.1 -0.4
v 0.3 1.1 -0.4
v -0.1 1.2 0.1
v 0.1 1.2 0.1
v -0.2 1.2 -5.96046e-08
v -0.1 1.2 -5.96046e-08
v 0.1 1.2 -5.96046e-08
v 0.2 1.2 -5.96046e-08
v -0.2 1.2 -0.5
v 0.2 1.2 -0.5

# faces
f 5/1/1 2/1/1 1/1/1
f 6/1/1 2/1/1 5/1/1
f 8/6/1 4/6/1 3/6/1
f 9/6/1 4/6/1 8/6/1
f 12/1/1 2/1/1 6/1/1
f 13/6/1 8/6/1 7/6/1
f 14/6/1 8/6/1 13/6/1
f 15/6/1 10/6/1 9/6/1
f 16/6/1 10/6/1 15/6/1
f 17/1/1 12/1/1 11/1/1
f 18/1/1 2/1/1 12/1/1
f 18/1/1 12/1/1 17/1/1
f 19/6/1 15/6/1 14/6/1
f 20/6/1 15/6/1 19/6/1
f 25/1/1 22/1/1 21/1/1
f 26/1/1 22/1/1 25/1/1
f 27/5/1 24/5/1 23/5/1
f 28/5/1 24/5/1 27/5/1
f 31/1/1 30/1/1 29/1/1
f 32/1/1 30/1/1 31/1/1
f 33/1/1 30/1/1 32/1/1
f 34/1/1 30/1/1 33/1/1
f 35/1/1 30/1/1 34/1/1
f 36/1/1 30/1/1 35/1/1
f 37/1/1 31/1/1 29/1/1
f 38/3/1 32/3/1 31/3/1
f 38/1/1 31/1/1 37/1/1
f 39/1/1 33/1/1 32/1/1
f 39/3/1 32/3/1 38/3/1
f 40/3/1 34/3/1 33/3/1
f 40/1/1 33/1/1 39/1/1
f 41/1/1 35/1/1 34/1/1
f 41/3/1 34/3/1 40/3/1
f 42/3/1 36/3/1 35/3/1
f 42/1/1 35/1/1 41/1/1
f 43/1/1 30/1/1 36/1/1
f 43/3/1 36/3/1 42/3/1
f 44/1/1 30/1/1 43/1/1
f 49/1/1 46/1/1 45/1/1
f 50/3/1 47/3/1 46/3/1
f 50/1/1 46/1/1 49/1/1
f 51/1/1 48/1/1 47/1/1
f 51/3/1 47/3/1 50/3/1
f 52/1/1 48/1/1 51/1/1
f 56/2/1 54/2/1 53/2/1
f 57/2/1 54/2/1 56/2/1
f 58/2/1 54/2/1 57/2/1
f 59/2/1 54/2/1 58/2/1
f 60/2/1 54/2/1 59/2/1
f 61/1/1 55/1/1 54/1/1
f 61/2/1 54/2/1 60/2/1
f 62/1/1 55/1/1 61/1/1
f 67/1/1 64/1/1 63/1/1
f 68/1/1 66/1/1 65/1/1
f 68/1/1 67/1/1 66/1/1
f 69/1/1 64/1/1 67/1/1
f 69/1/1 67/1/1 68/1/1
f 72/1/1 71/1/1 70/1/1
f 73/1/1 71/1/1 72/1/1
f 77/2/1 75/2/1 74/2/1
f 78/2/1 75/2/1 77/2/1
f 79/2/1 75/2/1 78/2/1
f 80/2/1 75/2/1 79/2/1
f 81/2/1 75/2/1 80/2/1
f 82/1/1 76/1/1 75/1/1
f 82/2/1 75/2/1 81/2/1
f 83/1/1 76/1/1 82/1/1
f 84/1/1 76/1/1 83/1/1
f 93/1/1 86/1/1 85/1/1
f 94/3/1 87/3/1 86/3/1
f 94/1/1 86/1/1 93/1/1
f 95/1/1 88/1/1 87/1/1
f 95/3/1 87/3/1 94/3/1
f 96/3/1 89/3/1 88/3/1
f 96/1/1 88/1/1 95/1/1
f 97/1/1 90/1/1 89/1/1
f 97/3/1 89/3/1 96/3/1
f 98/3/1 91/3/1 90/3/1
f 98/1/1 90/1/1 97/1/1
f 99/1/1 92/1/1 91/1/1
f 99/3/1 91/3/1 98/3/1
f 100/1/1 92/1/1 99/1/1
f 104/6/1 102/6/1 101/6/1
f 105/6/1 102/6/1 104/6/1
f 107/6/1 104/6/1 103/6/1
f 108/6/1 106/6/1 105/6/1
f 109/6/1 107/6/1 103/6/1
f 110/6/1 107/6/1 109/6/1
f 113/6/1 106/6/1 108/6/1
f 114/6/1 106/6/1 113/6/1
f 115/6/1 112/6/1 111/6/1
f 116/6/1 112/6/1 115/6/1
f 119/4/1 118/4/1 117/4/1
f 120/4/1 118/4/1 119/4/1
f 121/5/2 122/5/2 123/5/2
f 123/5/2 122/5/2 124/5/2
f 125/6/2 126/6/2 128/6/2
f 128/6/2 126/6/2 129/6/2
f 127/6/2 128/6/2 131/6/2
f 129/6/2 130/6/2 132/6/2
f 127/6/2 131/6/2 133/6/2
f 133/6/2 131/6/2 134/6/2
f 132/6/2 130/6/2 137/6/2
f 137/6/2 130/6/2 138/6/2
f 135/6/2 136/6/2 139/6/2
f 139/6/2 136/6/2 140/6/2
f 141/1/2 142/1/2 149/1/2
f 142/3/2 143/3/2 150/3/2
f 149/1/2 142/1/2 150/1/2
f 143/1/2 144/1/2 151/1/2
f 150/3/2 143/3/2 151/3/2
f 144/3/2 145/3/2 152/3/2
f 151/1/2 144/1/2 152/1/2
f 145/1/2 146/1/2 153/1/2
f 152/3/2 145/3/2 153/3/2
f 146/3/2 147/3/2 154/3/2
f 153/1/2 146/1/2 154/1/2
f 147/1/2 148/1/2 155/1/2
f 154/3/2 147/3/2 155/3/2
f 155/1/2 148/1/2 156/1/2
f 157/2/2 158/2/2 160/2/2
f 160/2/2 158/2/2 161/2/2
f 161/2/2 158/2/2 162/2/2
f 162/2/2 158/2/2 163/2/2
f 163/2/2 158/2/2 164/2/2
f 158/1/2 159/1/2 165/1/2
f 164/2/2 158/2/2 165/2/2
f 165/1/2 159/1/2 166/1/2
f 166/1/2 159/1/2 167/1/2
f 168/1/2 169/1/2 170/1/2
f 170/1/2 169/1/2 171/1/2
f 172/1/2 173/1/2 176/1/2
f 174/1/2 175/1/2 177/1/2
f 175/1/2 176/1/2 177/1/2
f 176/1/2 173/1/2 178/1/2
f 177/1/2 176/1/2 178/1/2
f 179/2/2 180/2/2 182/2/2
f 182/2/2 180/2/2 183/2/2
f 183/2/2 180/2/2 184/2/2
f 184/2/2 180/2/2 185/2/2
f 185/2/2 180/2/2 186/2/2
f 180/1/2 181/1/2 187/1/2
f 186/2/2 180/2/2 187/2/2
f 187/1/2 181/1/2 188/1/2
f 189/1/2 190/1/2 193/1/2
f 190/3/2 191/3/2 194/3/2
f 193/1/2 190/1/2 194/1/2
f 191/1/2 192/1/2 195/1/2
f 194/3/2 191/3/2 195/3/2
f 195/1/2 192/1/2 196/1/2
f 197/1/2 198/1/2 199/1/2
f 199/1/2 198/1/2 200/1/2
f 200/1/2 198/1/2 201/1/2
f 201/1/2 198/1/2 202/1/2
f 202/1/2 198/1/2 203/1/2
f 203/1/2 198/1/2 204/1/2
f 197/1/2 199/1/2 205/1/2
f 199/3/2 200/3/2 206/3/2
f 205/1/2 199/1/2 206/1/2
f 200/1/2 201/1/2 207/1/2
f 206/3/2 200/3/2 207/3/2
f 201/3/2 202/3/2 208/3/2
f 207/1/2 201/1/2 208/1/2
f 202/1/2 203/1/2 209/1/2
f 208/3/2 202/3/2 209/3/2
f 203/3/2 204/3/2 210/3/2
f 209/1/2 203/1/2 210/1/2
f 204/1/2 198/1/2 211/1/2
f 210/3/2 204/3/2 211/3/2
f 211/1/2 198/1/2 212/1/2
f 213/1/2 214/1/2 217/1/2
f 217/1/2 214/1/2 218/1/2
f 215/4/2 216/4/2 219/4/2
f 219/4/2 216/4/2 220/4/2
f 221/1/2 222/1/2 225/1/2
f 225/1/2 222/1/2 226/1/2
f 223/6/2 224/6/2 228/6/2
f 228/6/2 224/6/2 229/6/2
f 226/1/2 222/1/2 232/1/2
f 227/6/2 228/6/2 233/6/2
f 233/6/2 228/6/2 234/6/2
f 229/6/2 230/6/2 235/6/2
f 235/6/2 230/6/2 236/6/2
f 231/1/2 232/1/2 237/1/2
f 232/1/2 222/1/2 238/1/2
f 237/1/2 232/1/2 238/1/2
f 234/6/2 235/6/2 239/6/2
f 239/6/2 235/6/2 240/6/2
f 245/1/3 242/1/3 241/1/3
f 246/1/3 242/1/3 245/1/3
f 247/1/3 244/1/3 243/1/3
f 248/1/3 244/1/3 247/1/3
f 249/3/3 246/3/3 245/3/3
f 250/3/3 246/3/3 249/3/3
f 251/3/3 248/3/3 247/3/3
f 252/3/3 248/3/3 251/3/3
f 253/1/3 250/1/3 249/1/3
f 254/1/3 250/1/3 253/1/3
f 255/1/3 252/1/3 251/1/3
f 256/1/3 252/1/3 255/1/3
f 257/3/3 254/3/3 253/3/3
f 258/3/3 254/3/3 257/3/3
f 259/3/3 256/3/3 255/3/3
f 260/3/3 256/3/3 259/3/3
f 261/1/3 258/1/3 257/1/3
f 262/1/3 258/1/3 261/1/3
f 263/1/3 260/1/3 259/1/3
f 264/1/3 260/1/3 263/1/3
f 265/3/3 262/3/3 261/3/3
f 266/3/3 262/3/3 265/3/3
f 267/3/3 264/3/3 263/3/3
f 268/3/3 264/3/3 267/3/3
f 269/1/3 266/1/3 265/1/3
f 270/1/3 266/1/3 269/1/3
f 271/1/3 268/1/3 267/1/3
f 272/1/3 268/1/3 271/1/3
f 275/1/3 274/1/3 273/1/3
f 276/1/3 274/1/3 275/1/3
f 279/6/3 278/6/3 277/6/3
f 280/6/3 278/6/3 279/6/3
f 283/6/3 282/6/3 281/6/3
f 284/6/3 282/6/3 283/6/3
f 289/6/3 286/6/3 285/6/3
f 290/6/3 286/6/3 289/6/3
f 292/6/3 288/6/3 287/6/3
f 293/6/3 288/6/3 292/6/3
f 295/1/3 294/1/3 293/1/3
f 295/1/3 293/1/3 292/1/3
f 296/1/3 294/1/3 295/1/3
f 297/1/3 295/1/3 292/1/3
f 298/1/3 295/1/3 297/1/3
f 300/1/3 299/1/3 298/1/3
f 302/1/3 300/1/3 298/1/3
f 302/2/3 301/2/3 300/2/3
f 303/2/3 301/2/3 302/2/3
f 304/3/3 298/3/3 297/3/3
f 304/1/3 297/1/3 292/1/3
f 305/1/3 302/1/3 298/1/3
f 305/3/3 298/3/3 304/3/3
f 306/1/3 302/1/3 305/1/3
f 307/1/3 305/1/3 304/1/3
f 311/5/3 292/5/3 291/5/3
f 312/1/3 304/1/3 292/1/3
f 312/5/3 292/5/3 311/5/3
f 312/1/3 307/1/3 304/1/3
f 312/1/3 308/1/3 307/1/3
f 313/1/3 308/1/3 312/1/3
f 314/1/3 308/1/3 313/1/3
f 315/6/3 310/6/3 309/6/3
f 316/6/3 310/6/3 315/6/3
f 317/6/3 313/6/3 312/6/3
f 318/6/3 313/6/3 317/6/3
f 321/2/3 320/2/3 319/2/3
f 322/2/3 320/2/3 321/2/3
f 325/2/3 324/2/3 323/2/3
f 327/2/3 325/2/3 323/2/3
f 327/1/3 326/1/3 325/1/3
f 328/1/3 326/1/3 327/1/3
f 329/2/3 327/2/3 323/2/3
f 330/2/3 327/2/3 329/2/3
f 333/1/3 332/1/3 331/1/3
f 334/1/3 332/1/3 333/1/3
f 337/1/3 336/1/3 335/1/3
f 338/1/3 336/1/3 337/1/3
f 341/1/3 340/1/3 339/1/3
f 342/1/3 340/1/3 341/1/3
f 345/1/3 344/1/3 343/1/3
f 346/1/3 344/1/3 345/1/3
f 349/6/3 348/6/3 347/6/3
f 350/6/3 348/6/3 349/6/3
f 353/6/3 352/6/3 351/6/3
f 354/6/3 352/6/3 353/6/3
f 357/6/3 356/6/3 355/6/3
f 358/6/3 356/6/3 357/6/3
f 361/6/3 360/6/3 359/6/3
f 362/6/3 360/6/3 361/6/3
f 363/1/4 364/1/4 365/1/4
f 365/1/4 364/1/4 366/1/4
f 363/1/4 365/1/4 367/1/4
f 366/1/4 364/1/4 368/1/4
f 363/1/4 367/1/4 369/1/4
f 367/1/4 368/1/4 369/1/4
f 368/1/4 364/1/4 370/1/4
f 369/1/4 368/1/4 370/1/4
f 371/1/4 372/1/4 373/1/4
f 373/1/4 372/1/4 374/1/4
f 375/6/4 376/6/4 377/6/4
f 377/6/4 376/6/4 378/6/4
f 379/6/4 380/6/4 381/6/4
f 381/6/4 380/6/4 382/6/4
f 383/6/4 384/6/4 385/6/4
f 385/6/4 384/6/4 386/6/4
f 387/6/4 388/6/4 389/6/4
f 389/6/4 388/6/4 390/6/4
f 393/2/4 394/2/4 395/2/4
f 395/2/4 394/2/4 396/2/4
f 391/1/4 392/1/4 397/1/4
f 397/1/4 392/1/4 398/1/4
f 399/2/4 400/2/4 401/2/4
f 401/2/4 400/2/4 402/2/4
f 403/2/4 404/2/4 405/2/4
f 405/2/4 404/2/4 406/2/4
f 407/1/4 408/1/4 409/1/4
f 409/1/4 408/1/4 410/1/4
f 411/1/4 412/1/4 413/1/4
f 413/1/4 412/1/4 414/1/4
f 415/1/4 416/1/4 417/1/4
f 417/1/4 416/1/4 418/1/4
f 419/1/4 420/1/4 421/1/4
f 421/1/4 420/1/4 422/1/4
f 423/6/4 424/6/4 427/6/4
f 427/6/4 424/6/4 428/6/4
f 425/6/4 426/6/4 430/6/4
f 430/6/4 426/6/4 431/6/4
f 431/1/4 432/1/4 433/1/4
f 430/1/4 431/1/4 433/1/4
f 433/1/4 432/1/4 434/1/4
f 430/1/4 433/1/4 435/1/4
f 430/1/4 435/1/4 437/1/4
f 435/1/4 436/1/4 437/1/4
f 437/1/4 436/1/4 438/1/4
f 430/1/4 437/1/4 439/1/4
f 429/5/4 430/5/4 443/5/4
f 430/1/4 439/1/4 444/1/4
f 443/5/4 430/5/4 444/5/4
f 439/1/4 440/1/4 444/1/4
f 444/1/4 440/1/4 445/1/4
f 445/1/4 440/1/4 446/1/4
f 441/6/4 442/6/4 447/6/4
f 447/6/4 442/6/4 448/6/4
f 444/6/4 445/6/4 449/6/4
f 449/6/4 445/6/4 450/6/4
f 451/6/4 452/6/4 453/6/4
f 453/6/4 452/6/4 454/6/4
f 455/6/4 456/6/4 457/6/4
f 457/6/4 456/6/4 458/6/4
f 467/1/5 460/1/5 459/1/5
f 467/3/5 461/3/5 460/3/5
f 468/1/5 462/1/5 461/1/5
f 468/3/5 461/3/5 467/3/5
f 469/3/5 463/3/5 462/3/5
f 469/1/5 462/1/5 468/1/5
f 470/1/5 464/1/5 463/1/5
f 470/3/5 463/3/5 469/3/5
f 471/3/5 465/3/5 464/3/5
f 471/1/5 464/1/5 470/1/5
f 472/1/5 466/1/5 465/1/5
f 472/3/5 465/3/5 471/3/5
f 473/1/5 471/1/5 470/1/5
f 473/1/5 470/1/5 469/1/5
f 473/1/5 472/1/5 471/1/5
f 473/1/5 469/1/5 468/1/5
f 473/1/5 468/1/5 467/1/5
f 473/1/5 467/1/5 459/1/5
f 474/1/5 466/1/5 472/1/5
f 474/1/5 472/1/5 473/1/5
f 479/6/5 476/6/5 475/6/5
f 480/6/5 476/6/5 479/6/5
f 481/6/5 478/6/5 477/6/5
f 482/6/5 478/6/5 481/6/5
f 486/1/5 484/1/5 483/1/5
f 487/1/5 484/1/5 486/1/5
f 488/1/5 484/1/5 487/1/5
f 489/1/5 484/1/5 488/1/5
f 491/6/5 486/6/5 485/6/5
f 491/6/5 487/6/5 486/6/5
f 492/6/5 487/6/5 491/6/5
f 493/6/5 490/6/5 489/6/5
f 493/6/5 489/6/5 488/6/5
f 494/6/5 490/6/5 493/6/5
f 499/6/5 496/6/5 495/6/5
f 500/6/5 496/6/5 499/6/5
f 501/6/5 498/6/5 497/6/5
f 502/6/5 498/6/5 501/6/5
f 507/5/5 504/5/5 503/5/5
f 507/5/5 506/5/5 505/5/5
f 507/5/5 505/5/5 504/5/5
f 508/5/5 506/5/5 507/5/5
f 509/5/5 506/5/5 508/5/5
f 510/5/5 506/5/5 509/5/5
f 519/1/5 512/1/5 511/1/5
f 519/3/5 513/3/5 512/3/5
f 520/1/5 514/1/5 513/1/5
f 520/3/5 513/3/5 519/3/5
f 521/3/5 515/3/5 514/3/5
f 521/1/5 514/1/5 520/1/5
f 522/1/5 516/1/5 515/1/5
f 522/3/5 515/3/5 521/3/5
f 523/3/5 517/3/5 516/3/5
f 523/1/5 516/1/5 522/1/5
f 524/1/5 518/1/5 517/1/5
f 524/3/5 517/3/5 523/3/5
f 525/1/5 523/1/5 522/1/5
f 525/1/5 522/1/5 521/1/5
f 525/1/5 524/1/5 523/1/5
f 525/1/5 521/1/5 520/1/5
f 525/1/5 520/1/5 519/1/5
f 525/1/5 519/1/5 511/1/5
f 526/1/5 518/1/5 524/1/5
f 526/1/5 524/1/5 525/1/5
f 531/6/5 528/6/5 527/6/5
f 532/6/5 528/6/5 531/6/5
f 533/6/5 530/6/5 529/6/5
f 534/6/5 530/6/5 533/6/5
f 537/1/5 536/1/5 535/1/5
f 538/1/5 536/1/5 537/1/5
f 541/2/5 540/2/5 539/2/5
f 542/2/5 540/2/5 541/2/5
f 545/2/5 544/2/5 543/2/5
f 546/2/5 544/2/5 545/2/5
f 549/1/5 548/1/5 547/1/5
f 550/1/5 548/1/5 549/1/5
f 553/1/5 552/1/5 551/1/5
f 554/1/5 552/1/5 553/1/5
f 555/1/6 556/1/6 563/1/6
f 556/3/6 557/3/6 563/3/6
f 557/1/6 558/1/6 564/1/6
f 563/3/6 557/3/6 564/3/6
f 558/3/6 559/3/6 565/3/6
f 564/1/6 558/1/6 565/1/6
f 559/1/6 560/1/6 566/1/6
f 565/3/6 559/3/6 566/3/6
f 560/3/6 561/3/6 567/3/6
f 566/1/6 560/1/6 567/1/6
f 561/1/6 562/1/6 568/1/6
f 567/3/6 561/3/6 568/3/6
f 566/1/6 567/1/6 569/1/6
f 565/1/6 566/1/6 569/1/6
f 567/1/6 568/1/6 569/1/6
f 564/1/6 565/1/6 569/1/6
f 563/1/6 564/1/6 569/1/6
f 555/1/6 563/1/6 569/1/6
f 568/1/6 562/1/6 570/1/6
f 569/1/6 568/1/6 570/1/6
f 571/6/6 572/6/6 579/6/6
f 579/6/6 572/6/6 580/6/6
f 573/6/6 574/6/6 581/6/6
f 581/6/6 574/6/6 582/6/6
f 575/6/6 576/6/6 583/6/6
f 583/6/6 576/6/6 584/6/6
f 577/6/6 578/6/6 585/6/6
f 585/6/6 578/6/6 586/6/6
f 587/1/6 588/1/6 590/1/6
f 590/1/6 588/1/6 591/1/6
f 591/1/6 588/1/6 592/1/6
f 592/1/6 588/1/6 593/1/6
f 589/6/6 590/6/6 595/6/6
f 590/6/6 591/6/6 595/6/6
f 595/6/6 591/6/6 596/6/6
f 593/6/6 594/6/6 597/6/6
f 592/6/6 593/6/6 597/6/6
f 597/6/6 594/6/6 598/6/6
f 599/5/6 600/5/6 601/5/6
f 601/5/6 600/5/6 602/5/6
f 603/6/6 604/6/6 607/6/6
f 607/6/6 604/6/6 608/6/6
f 605/6/6 606/6/6 609/6/6
f 609/6/6 606/6/6 610/6/6
f 611/1/6 612/1/6 619/1/6
f 612/3/6 613/3/6 619/3/6
f 613/1/6 614/1/6 620/1/6
f 619/3/6 613/3/6 620/3/6
f 614/3/6 615/3/6 621/3/6
f 620/1/6 614/1/6 621/1/6
f 615/1/6 616/1/6 622/1/6
f 621/3/6 615/3/6 622/3/6
f 616/3/6 617/3/6 623/3/6
f 622/1/6 616/1/6 623/1/6
f 617/1/6 618/1/6 624/1/6
f 623/3/6 617/3/6 624/3/6
f 622/1/6 623/1/6 625/1/6
f 621/1/6 622/1/6 625/1/6
f 623/1/6 624/1/6 625/1/6
f 620/1/6 621/1/6 625/1/6
f 619/1/6 620/1/6 625/1/6
f 611/1/6 619/1/6 625/1/6
f 624/1/6 618/1/6 626/1/6
f 625/1/6 624/1/6 626/1/6
f 627/6/6 628/6/6 631/6/6
f 631/6/6 628/6/6 632/6/6
f 629/6/6 630/6/6 633/6/6
f 633/6/6 630/6/6 634/6/6
f 635/1/6 636/1/6 639/1/6
f 639/1/6 636/1/6 640/1/6
f 637/1/6 638/1/6 641/1/6
f 640/1/6 636/1/6 642/1/6
f 637/1/6 641/1/6 643/1/6
f 642/1/6 636/1/6 644/1/6
f 637/1/6 643/1/6 645/1/6
f 637/1/6 645/1/6 646/1/6
f 644/1/6 636/1/6 647/1/6
f 637/1/6 646/1/6 648/1/6
f 647/1/6 636/1/6 649/1/6
f 637/1/6 648/1/6 650/1/6
f 649/1/6 636/1/6 651/1/6
f 637/1/6 650/1/6 652/1/6
f 649/1/6 651/1/6 653/1/6
f 652/1/6 650/1/6 654/1/6
f 649/1/6 653/1/6 655/1/6
f 655/1/6 653/1/6 656/1/6
f 654/1/6 650/1/6 657/1/6
f 657/1/6 650/1/6 658/1/6
f 659/1/6 660/1/6 669/1/6
f 669/1/6 660/1/6 670/1/6
f 669/3/6 670/3/6 671/3/6
f 671/3/6 670/3/6 672/3/6
f 665/1/6 666/1/6 673/1/6
f 673/1/6 666/1/6 674/1/6
f 671/1/6 672/1/6 675/1/6
f 675/1/6 672/1/6 676/1/6
f 661/1/6 662/1/6 677/1/6
f 667/1/6 668/1/6 678/1/6
f 678/1/6 668/1/6 679/1/6
f 663/1/6 664/1/6 680/1/6
f 673/3/6 674/3/6 681/3/6
f 681/3/6 674/3/6 682/3/6
f 675/3/6 676/3/6 683/3/6
f 683/3/6 676/3/6 684/3/6
f 681/1/6 682/1/6 685/1/6
f 685/1/6 682/1/6 686/1/6
f 661/1/6 677/1/6 687/1/6
f 678/1/6 679/1/6 688/1/6
f 688/1/6 679/1/6 689/1/6
f 680/1/6 664/1/6 690/1/6
f 685/3/6 686/3/6 691/3/6
f 691/3/6 686/3/6 692/3/6
f 683/1/6 684/1/6 693/1/6
f 693/1/6 684/1/6 694/1/6
f 687/1/6 688/1/6 695/1/6
f 689/1/6 690/1/6 696/1/6
f 691/1/6 692/1/6 697/1/6
f 697/1/6 692/1/6 698/1/6
f 693/3/6 694/3/6 699/3/6
f 699/3/6 694/3/6 700/3/6
f 697/3/6 698/3/6 701/3/6
f 701/3/6 698/3/6 702/3/6
f 661/1/6 687/1/6 703/1/6
f 695/1/6 696/1/6 703/1/6
f 687/1/6 695/1/6 703/1/6
f 690/1/6 664/1/6 704/1/6
f 703/1/6 696/1/6 704/1/6
f 696/1/6 690/1/6 704/1/6
f 703/3/6 704/3/6 705/3/6
f 705/3/6 704/3/6 706/3/6
f 699/1/6 700/1/6 707/1/6
f 707/1/6 700/1/6 708/1/6
f 705/1/6 706/1/6 709/1/6
f 709/1/6 706/1/6 710/1/6
f 701/1/6 702/1/6 711/1/6
f 711/1/6 702/1/6 712/1/6
f 713/2/6 714/2/6 715/2/6
f 715/2/6 714/2/6 716/2/6
f 717/2/6 718/2/6 719/2/6
f 719/2/6 718/2/6 720/2/6
f 721/2/6 722/2/6 725/2/6
f 725/2/6 722/2/6 726/2/6
f 723/2/6 724/2/6 727/2/6
f 727/2/6 724/2/6 728/2/6
f 721/2/6 725/2/6 729/2/6
f 729/2/6 725/2/6 730/2/6
f 728/2/6 724/2/6 731/2/6
f 731/2/6 724/2/6 732/2/6
f 729/1/6 730/1/6 733/1/6
f 733/1/6 730/1/6 734/1/6
f 731/1/6 732/1/6 735/1/6
f 735/1/6 732/1/6 736/1/6
f 737/1/6 738/1/6 740/1/6
f 740/1/6 738/1/6 741/1/6
f 739/1/6 740/1/6 743/1/6
f 741/1/6 742/1/6 743/1/6
f 740/1/6 741/1/6 743/1/6
f 743/1/6 742/1/6 744/1/6
