# MagicaVoxel @ Ephtracy

# group
o 

# material
mtllib Monster3.mtl
usemtl palette

# normals
vn -1 0 0
vn 1 0 0
vn 0 0 1
vn 0 0 -1
vn 0 -1 0
vn 0 1 0

# texcoords
vt 0.0917969 0.5
vt 0.986328 0.5
vt 0.994141 0.5

# verts
v -0.3 0 0.5
v -0.3 0 0.3
v -0.3 0 0.2
v -0.3 0 -0.2
v -0.3 0 -0.3
v -0.3 0.1 0.5
v -0.3 0.1 0.4
v -0.3 0.1 0.2
v -0.3 0.1 -0.2
v -0.3 0.2 0.4
v -0.3 0.2 0.3
v -0.3 0.3 0.3
v -0.3 0.3 -0.3
v -0.3 0.4 -0.1
v -0.3 0.4 -0.2
v -0.3 0.5 -0.1
v -0.3 0.5 -0.2
v -0.2 0.3 0.2
v -0.2 0.3 -0.2
v -0.2 0.4 0.2
v -0.2 0.4 0.1
v -0.2 0.4 -0.1
v -0.2 0.4 -0.2
v -0.2 0.4 -0.3
v -0.2 0.5 0.2
v -0.2 0.5 0.1
v -0.2 0.5 -0.1
v -0.2 0.5 -0.2
v -0.2 0.5 -0.3
v -0.2 0.6 -0.1
v -0.2 0.6 -0.2
v -0.1 0 0.5
v -0.1 0 0.3
v -0.1 0 0.2
v -0.1 0 0.1
v -0.1 0 -0.1
v -0.1 0.1 0.5
v -0.1 0.1 0.4
v -0.1 0.1 0.3
v -0.1 0.1 0.2
v -0.1 0.1 0.1
v -0.1 0.1 -0.1
v -0.1 0.2 0.4
v -0.1 0.2 0.3
v 0.1 0.4 -0.2
v 0.1 0.4 -0.3
v 0.1 0.5 -0.1
v 0.1 0.5 -0.2
v 0.1 0.5 -0.3
v 0.1 0.6 -0.1
v 0.1 0.6 -0.2
v 0.2 0 0.5
v 0.2 0 0.3
v 0.2 0 0.2
v 0.2 0 -0.2
v 0.2 0 -0.3
v 0.2 0.1 0.5
v 0.2 0.1 0.4
v 0.2 0.1 0.3
v 0.2 0.1 0.2
v 0.2 0.1 -0.2
v 0.2 0.1 -0.3
v 0.2 0.2 0.4
v 0.2 0.2 0.3
v -0.2 0 0.5
v -0.2 0 0.3
v -0.2 0 0.2
v -0.2 0 -0.2
v -0.2 0 -0.3
v -0.2 0.1 0.5
v -0.2 0.1 0.4
v -0.2 0.1 0.3
v -0.2 0.1 0.2
v -0.2 0.1 -0.2
v -0.2 0.1 -0.3
v -0.2 0.2 0.4
v -0.2 0.2 0.3
v -0.1 0.4 -0.2
v -0.1 0.4 -0.3
v -0.1 0.5 -0.1
v -0.1 0.5 -0.2
v -0.1 0.5 -0.3
v -0.1 0.6 -0.1
v -0.1 0.6 -0.2
v 0.1 0 0.5
v 0.1 0 0.3
v 0.1 0 0.2
v 0.1 0 0.1
v 0.1 0 -0.1
v 0.1 0.1 0.5
v 0.1 0.1 0.4
v 0.1 0.1 0.3
v 0.1 0.1 0.2
v 0.1 0.1 0.1
v 0.1 0.1 -0.1
v 0.1 0.2 0.4
v 0.1 0.2 0.3
v 0.2 0.3 0.2
v 0.2 0.3 -0.2
v 0.2 0.4 0.2
v 0.2 0.4 0.1
v 0.2 0.4 -0.1
v 0.2 0.4 -0.2
v 0.2 0.4 -0.3
v 0.2 0.5 0.2
v 0.2 0.5 0.1
v 0.2 0.5 -0.1
v 0.2 0.5 -0.2
v 0.2 0.5 -0.3
v 0.2 0.6 -0.1
v 0.2 0.6 -0.2
v 0.3 0 0.5
v 0.3 0 0.3
v 0.3 0 0.2
v 0.3 0 -0.2
v 0.3 0 -0.3
v 0.3 0.1 0.5
v 0.3 0.1 0.4
v 0.3 0.1 0.2
v 0.3 0.1 -0.2
v 0.3 0.2 0.4
v 0.3 0.2 0.3
v 0.3 0.3 0.3
v 0.3 0.3 -0.3
v 0.3 0.4 -0.1
v 0.3 0.4 -0.2
v 0.3 0.5 -0.1
v 0.3 0.5 -0.2
v -0.3 0 0.5
v -0.3 0.1 0.5
v -0.2 0 0.5
v -0.2 0.1 0.5
v -0.1 0 0.5
v -0.1 0.1 0.5
v 0.1 0 0.5
v 0.1 0.1 0.5
v 0.2 0 0.5
v 0.2 0.1 0.5
v 0.3 0 0.5
v 0.3 0.1 0.5
v -0.3 0.1 0.4
v -0.3 0.2 0.4
v -0.2 0.1 0.4
v -0.2 0.2 0.4
v -0.1 0.1 0.4
v -0.1 0.2 0.4
v 0.1 0.1 0.4
v 0.1 0.2 0.4
v 0.2 0.1 0.4
v 0.2 0.2 0.4
v 0.3 0.1 0.4
v 0.3 0.2 0.4
v -0.3 0.2 0.3
v -0.3 0.3 0.3
v -0.2 0.1 0.3
v -0.2 0.2 0.3
v -0.1 0.1 0.3
v -0.1 0.2 0.3
v 0.1 0.1 0.3
v 0.1 0.2 0.3
v 0.2 0.1 0.3
v 0.2 0.2 0.3
v 0.3 0.2 0.3
v 0.3 0.3 0.3
v -0.2 0.3 0.2
v -0.2 0.4 0.2
v -0.2 0.5 0.2
v -0.1 0.4 0.2
v -0.1 0.5 0.2
v 0.1 0.4 0.2
v 0.1 0.5 0.2
v 0.2 0.3 0.2
v 0.2 0.4 0.2
v 0.2 0.5 0.2
v -0.1 0 0.1
v -0.1 0.1 0.1
v 0.1 0 0.1
v 0.1 0.1 0.1
v -0.3 0.4 -0.1
v -0.3 0.5 -0.1
v -0.2 0.4 -0.1
v -0.2 0.5 -0.1
v -0.2 0.6 -0.1
v -0.1 0.5 -0.1
v -0.1 0.6 -0.1
v 0.1 0.5 -0.1
v 0.1 0.6 -0.1
v 0.2 0.4 -0.1
v 0.2 0.5 -0.1
v 0.2 0.6 -0.1
v 0.3 0.4 -0.1
v 0.3 0.5 -0.1
v -0.3 0 -0.2
v -0.3 0.1 -0.2
v -0.2 0 -0.2
v -0.2 0.1 -0.2
v 0.2 0 -0.2
v 0.2 0.1 -0.2
v 0.3 0 -0.2
v 0.3 0.1 -0.2
v -0.3 0 0.2
v -0.3 0.1 0.2
v -0.2 0 0.2
v -0.2 0.1 0.2
v -0.1 0 0.2
v -0.1 0.1 0.2
v 0.1 0 0.2
v 0.1 0.1 0.2
v 0.2 0 0.2
v 0.2 0.1 0.2
v 0.3 0 0.2
v 0.3 0.1 0.2
v -0.1 0 -0.1
v -0.1 0.1 -0.1
v 0.1 0 -0.1
v 0.1 0.1 -0.1
v -0.3 0.4 -0.2
v -0.3 0.5 -0.2
v -0.2 0.3 -0.2
v -0.2 0.4 -0.2
v -0.2 0.5 -0.2
v -0.2 0.6 -0.2
v -0.1 0.4 -0.2
v -0.1 0.5 -0.2
v -0.1 0.6 -0.2
v 0.1 0.4 -0.2
v 0.1 0.5 -0.2
v 0.1 0.6 -0.2
v 0.2 0.3 -0.2
v 0.2 0.4 -0.2
v 0.2 0.5 -0.2
v 0.2 0.6 -0.2
v 0.3 0.4 -0.2
v 0.3 0.5 -0.2
v -0.3 0 -0.3
v -0.3 0.3 -0.3
v -0.2 0 -0.3
v -0.2 0.1 -0.3
v -0.2 0.4 -0.3
v -0.2 0.5 -0.3
v -0.1 0.4 -0.3
v -0.1 0.5 -0.3
v 0.1 0.4 -0.3
v 0.1 0.5 -0.3
v 0.2 0 -0.3
v 0.2 0.1 -0.3
v 0.2 0.4 -0.3
v 0.2 0.5 -0.3
v 0.3 0 -0.3
v 0.3 0.3 -0.3
v -0.3 0 0.5
v -0.2 0 0.5
v -0.1 0 0.5
v 0.1 0 0.5
v 0.2 0 0.5
v 0.3 0 0.5
v -0.3 0 0.3
v -0.2 0 0.3
v -0.1 0 0.3
v 0.1 0 0.3
v 0.2 0 0.3
v 0.3 0 0.3
v -0.3 0 0.2
v -0.2 0 0.2
v -0.1 0 0.2
v 0.1 0 0.2
v 0.2 0 0.2
v 0.3 0 0.2
v -0.1 0 0.1
v 0.1 0 0.1
v -0.1 0 -0.1
v 0.1 0 -0.1
v -0.3 0 -0.2
v -0.2 0 -0.2
v 0.2 0 -0.2
v 0.3 0 -0.2
v -0.3 0 -0.3
v -0.2 0 -0.3
v 0.2 0 -0.3
v 0.3 0 -0.3
v -0.2 0.1 0.3
v -0.1 0.1 0.3
v 0.1 0.1 0.3
v 0.2 0.1 0.3
v -0.3 0.1 0.2
v -0.2 0.1 0.2
v -0.1 0.1 0.2
v 0.1 0.1 0.2
v 0.2 0.1 0.2
v 0.3 0.1 0.2
v -0.1 0.1 0.1
v 0.1 0.1 0.1
v -0.1 0.1 -0.1
v 0.1 0.1 -0.1
v -0.3 0.1 -0.2
v -0.2 0.1 -0.2
v 0.2 0.1 -0.2
v 0.3 0.1 -0.2
v -0.2 0.1 -0.3
v 0.2 0.1 -0.3
v -0.3 0.4 -0.1
v -0.2 0.4 -0.1
v 0.2 0.4 -0.1
v 0.3 0.4 -0.1
v -0.3 0.4 -0.2
v -0.2 0.4 -0.2
v -0.1 0.4 -0.2
v 0.1 0.4 -0.2
v 0.2 0.4 -0.2
v 0.3 0.4 -0.2
v -0.2 0.4 -0.3
v -0.1 0.4 -0.3
v 0.1 0.4 -0.3
v 0.2 0.4 -0.3
v -0.3 0.1 0.5
v -0.2 0.1 0.5
v -0.1 0.1 0.5
v 0.1 0.1 0.5
v 0.2 0.1 0.5
v 0.3 0.1 0.5
v -0.3 0.1 0.4
v -0.2 0.1 0.4
v -0.1 0.1 0.4
v 0.1 0.1 0.4
v 0.2 0.1 0.4
v 0.3 0.1 0.4
v -0.3 0.2 0.4
v -0.2 0.2 0.4
v -0.1 0.2 0.4
v 0.1 0.2 0.4
v 0.2 0.2 0.4
v 0.3 0.2 0.4
v -0.3 0.2 0.3
v -0.2 0.2 0.3
v -0.1 0.2 0.3
v 0.1 0.2 0.3
v 0.2 0.2 0.3
v 0.3 0.2 0.3
v -0.3 0.3 0.3
v 0.3 0.3 0.3
v -0.2 0.3 0.2
v 0.2 0.3 0.2
v -0.2 0.3 -0.2
v 0.2 0.3 -0.2
v -0.3 0.3 -0.3
v 0.3 0.3 -0.3
v -0.2 0.5 0.2
v -0.1 0.5 0.2
v 0.1 0.5 0.2
v 0.2 0.5 0.2
v -0.2 0.5 0.1
v -0.1 0.5 0.1
v 0.1 0.5 0.1
v 0.2 0.5 0.1
v -0.3 0.5 -0.1
v -0.2 0.5 -0.1
v -0.1 0.5 -0.1
v 0.1 0.5 -0.1
v 0.2 0.5 -0.1
v 0.3 0.5 -0.1
v -0.3 0.5 -0.2
v -0.2 0.5 -0.2
v -0.1 0.5 -0.2
v 0.1 0.5 -0.2
v 0.2 0.5 -0.2
v 0.3 0.5 -0.2
v -0.2 0.5 -0.3
v -0.1 0.5 -0.3
v 0.1 0.5 -0.3
v 0.2 0.5 -0.3
v -0.2 0.6 -0.1
v -0.1 0.6 -0.1
v 0.1 0.6 -0.1
v 0.2 0.6 -0.1
v -0.2 0.6 -0.2
v -0.1 0.6 -0.2
v 0.1 0.6 -0.2
v 0.2 0.6 -0.2

# faces
f 6/1/1 2/1/1 1/1/1
f 7/1/1 2/1/1 6/1/1
f 8/3/1 3/3/1 2/3/1
f 9/3/1 5/3/1 4/3/1
f 10/1/1 2/1/1 7/1/1
f 11/3/1 8/3/1 2/3/1
f 11/1/1 2/1/1 10/1/1
f 11/3/1 9/3/1 8/3/1
f 12/3/1 9/3/1 11/3/1
f 13/3/1 5/3/1 9/3/1
f 13/3/1 9/3/1 12/3/1
f 16/3/1 15/3/1 14/3/1
f 17/3/1 15/3/1 16/3/1
f 20/2/1 19/2/1 18/2/1
f 21/2/1 19/2/1 20/2/1
f 22/2/1 19/2/1 21/2/1
f 23/2/1 19/2/1 22/2/1
f 25/3/1 21/3/1 20/3/1
f 26/2/1 22/2/1 21/2/1
f 26/3/1 21/3/1 25/3/1
f 27/2/1 22/2/1 26/2/1
f 28/3/1 24/3/1 23/3/1
f 29/3/1 24/3/1 28/3/1
f 30/3/1 28/3/1 27/3/1
f 31/3/1 28/3/1 30/3/1
f 37/1/1 33/1/1 32/1/1
f 38/1/1 33/1/1 37/1/1
f 39/3/1 34/3/1 33/3/1
f 39/1/1 33/1/1 38/1/1
f 40/3/1 34/3/1 39/3/1
f 41/2/1 36/2/1 35/2/1
f 42/2/1 36/2/1 41/2/1
f 43/1/1 39/1/1 38/1/1
f 44/1/1 39/1/1 43/1/1
f 48/3/1 46/3/1 45/3/1
f 49/3/1 46/3/1 48/3/1
f 50/3/1 48/3/1 47/3/1
f 51/3/1 48/3/1 50/3/1
f 57/1/1 53/1/1 52/1/1
f 58/1/1 53/1/1 57/1/1
f 59/3/1 54/3/1 53/3/1
f 59/1/1 53/1/1 58/1/1
f 60/3/1 54/3/1 59/3/1
f 61/3/1 56/3/1 55/3/1
f 62/3/1 56/3/1 61/3/1
f 63/1/1 59/1/1 58/1/1
f 64/1/1 59/1/1 63/1/1
f 65/1/2 66/1/2 70/1/2
f 70/1/2 66/1/2 71/1/2
f 66/3/2 67/3/2 72/3/2
f 71/1/2 66/1/2 72/1/2
f 72/3/2 67/3/2 73/3/2
f 68/3/2 69/3/2 74/3/2
f 74/3/2 69/3/2 75/3/2
f 71/1/2 72/1/2 76/1/2
f 76/1/2 72/1/2 77/1/2
f 78/3/2 79/3/2 81/3/2
f 81/3/2 79/3/2 82/3/2
f 80/3/2 81/3/2 83/3/2
f 83/3/2 81/3/2 84/3/2
f 85/1/2 86/1/2 90/1/2
f 90/1/2 86/1/2 91/1/2
f 86/3/2 87/3/2 92/3/2
f 91/1/2 86/1/2 92/1/2
f 92/3/2 87/3/2 93/3/2
f 88/2/2 89/2/2 94/2/2
f 94/2/2 89/2/2 95/2/2
f 91/1/2 92/1/2 96/1/2
f 96/1/2 92/1/2 97/1/2
f 98/2/2 99/2/2 100/2/2
f 100/2/2 99/2/2 101/2/2
f 101/2/2 99/2/2 102/2/2
f 102/2/2 99/2/2 103/2/2
f 100/3/2 101/3/2 105/3/2
f 101/2/2 102/2/2 106/2/2
f 105/3/2 101/3/2 106/3/2
f 106/2/2 102/2/2 107/2/2
f 103/3/2 104/3/2 108/3/2
f 108/3/2 104/3/2 109/3/2
f 107/3/2 108/3/2 110/3/2
f 110/3/2 108/3/2 111/3/2
f 112/1/2 113/1/2 117/1/2
f 117/1/2 113/1/2 118/1/2
f 113/3/2 114/3/2 119/3/2
f 115/3/2 116/3/2 120/3/2
f 118/1/2 113/1/2 121/1/2
f 113/3/2 119/3/2 122/3/2
f 121/1/2 113/1/2 122/1/2
f 119/3/2 120/3/2 122/3/2
f 122/3/2 120/3/2 123/3/2
f 120/3/2 116/3/2 124/3/2
f 123/3/2 120/3/2 124/3/2
f 125/3/2 126/3/2 127/3/2
f 127/3/2 126/3/2 128/3/2
f 131/1/3 130/1/3 129/1/3
f 132/1/3 130/1/3 131/1/3
f 135/1/3 134/1/3 133/1/3
f 136/1/3 134/1/3 135/1/3
f 139/1/3 138/1/3 137/1/3
f 140/1/3 138/1/3 139/1/3
f 143/1/3 142/1/3 141/1/3
f 144/1/3 142/1/3 143/1/3
f 147/1/3 146/1/3 145/1/3
f 148/1/3 146/1/3 147/1/3
f 151/1/3 150/1/3 149/1/3
f 152/1/3 150/1/3 151/1/3
f 156/3/3 154/3/3 153/3/3
f 157/3/3 156/3/3 155/3/3
f 158/3/3 154/3/3 156/3/3
f 158/3/3 156/3/3 157/3/3
f 160/3/3 154/3/3 158/3/3
f 161/3/3 160/3/3 159/3/3
f 162/3/3 154/3/3 160/3/3
f 162/3/3 160/3/3 161/3/3
f 163/3/3 154/3/3 162/3/3
f 164/3/3 154/3/3 163/3/3
f 168/2/3 166/2/3 165/2/3
f 168/3/3 167/3/3 166/3/3
f 169/3/3 167/3/3 168/3/3
f 170/2/3 168/2/3 165/2/3
f 170/2/3 169/2/3 168/2/3
f 171/2/3 169/2/3 170/2/3
f 172/2/3 170/2/3 165/2/3
f 173/3/3 171/3/3 170/3/3
f 173/2/3 170/2/3 172/2/3
f 174/3/3 171/3/3 173/3/3
f 177/2/3 176/2/3 175/2/3
f 178/2/3 176/2/3 177/2/3
f 181/3/3 180/3/3 179/3/3
f 182/3/3 180/3/3 181/3/3
f 184/3/3 183/3/3 182/3/3
f 185/3/3 183/3/3 184/3/3
f 189/3/3 187/3/3 186/3/3
f 190/3/3 187/3/3 189/3/3
f 191/3/3 189/3/3 188/3/3
f 192/3/3 189/3/3 191/3/3
f 195/3/3 194/3/3 193/3/3
f 196/3/3 194/3/3 195/3/3
f 199/3/3 198/3/3 197/3/3
f 200/3/3 198/3/3 199/3/3
f 201/3/4 202/3/4 203/3/4
f 203/3/4 202/3/4 204/3/4
f 205/3/4 206/3/4 207/3/4
f 207/3/4 206/3/4 208/3/4
f 209/3/4 210/3/4 211/3/4
f 211/3/4 210/3/4 212/3/4
f 213/2/4 214/2/4 215/2/4
f 215/2/4 214/2/4 216/2/4
f 217/3/4 218/3/4 220/3/4
f 220/3/4 218/3/4 221/3/4
f 219/2/4 220/2/4 223/2/4
f 221/3/4 222/3/4 224/3/4
f 224/3/4 222/3/4 225/3/4
f 219/2/4 223/2/4 226/2/4
f 223/2/4 224/2/4 226/2/4
f 226/2/4 224/2/4 227/2/4
f 219/2/4 226/2/4 229/2/4
f 229/2/4 226/2/4 230/2/4
f 227/3/4 228/3/4 231/3/4
f 231/3/4 228/3/4 232/3/4
f 230/3/4 231/3/4 233/3/4
f 233/3/4 231/3/4 234/3/4
f 235/3/4 236/3/4 237/3/4
f 237/3/4 236/3/4 238/3/4
f 239/3/4 240/3/4 241/3/4
f 241/3/4 240/3/4 242/3/4
f 238/3/4 236/3/4 246/3/4
f 243/3/4 244/3/4 247/3/4
f 247/3/4 244/3/4 248/3/4
f 245/3/4 246/3/4 249/3/4
f 246/3/4 236/3/4 250/3/4
f 249/3/4 246/3/4 250/3/4
f 257/1/5 252/1/5 251/1/5
f 258/1/5 252/1/5 257/1/5
f 259/1/5 254/1/5 253/1/5
f 260/1/5 254/1/5 259/1/5
f 261/1/5 256/1/5 255/1/5
f 262/1/5 256/1/5 261/1/5
f 263/3/5 258/3/5 257/3/5
f 264/3/5 258/3/5 263/3/5
f 265/3/5 260/3/5 259/3/5
f 266/3/5 260/3/5 265/3/5
f 267/3/5 262/3/5 261/3/5
f 268/3/5 262/3/5 267/3/5
f 271/2/5 270/2/5 269/2/5
f 272/2/5 270/2/5 271/2/5
f 277/3/5 274/3/5 273/3/5
f 278/3/5 274/3/5 277/3/5
f 279/3/5 276/3/5 275/3/5
f 280/3/5 276/3/5 279/3/5
f 286/3/5 282/3/5 281/3/5
f 287/3/5 282/3/5 286/3/5
f 288/3/5 284/3/5 283/3/5
f 289/3/5 284/3/5 288/3/5
f 291/3/5 287/3/5 286/3/5
f 291/3/5 290/3/5 289/3/5
f 291/3/5 289/3/5 288/3/5
f 291/3/5 288/3/5 287/3/5
f 291/3/5 286/3/5 285/3/5
f 292/3/5 290/3/5 291/3/5
f 293/3/5 291/3/5 285/3/5
f 294/3/5 290/3/5 292/3/5
f 295/3/5 293/3/5 285/3/5
f 295/3/5 294/3/5 293/3/5
f 296/3/5 294/3/5 295/3/5
f 297/3/5 290/3/5 294/3/5
f 297/3/5 294/3/5 296/3/5
f 298/3/5 290/3/5 297/3/5
f 299/3/5 297/3/5 296/3/5
f 300/3/5 297/3/5 299/3/5
f 305/3/5 302/3/5 301/3/5
f 306/3/5 302/3/5 305/3/5
f 309/3/5 304/3/5 303/3/5
f 310/3/5 304/3/5 309/3/5
f 311/3/5 307/3/5 306/3/5
f 312/3/5 307/3/5 311/3/5
f 313/3/5 309/3/5 308/3/5
f 314/3/5 309/3/5 313/3/5
f 315/1/6 316/1/6 321/1/6
f 321/1/6 316/1/6 322/1/6
f 317/1/6 318/1/6 323/1/6
f 323/1/6 318/1/6 324/1/6
f 319/1/6 320/1/6 325/1/6
f 325/1/6 320/1/6 326/1/6
f 327/1/6 328/1/6 333/1/6
f 333/1/6 328/1/6 334/1/6
f 329/1/6 330/1/6 335/1/6
f 335/1/6 330/1/6 336/1/6
f 331/1/6 332/1/6 337/1/6
f 337/1/6 332/1/6 338/1/6
f 339/3/6 340/3/6 341/3/6
f 341/3/6 340/3/6 342/3/6
f 339/3/6 341/3/6 343/3/6
f 342/3/6 340/3/6 344/3/6
f 339/3/6 343/3/6 345/3/6
f 343/3/6 344/3/6 345/3/6
f 344/3/6 340/3/6 346/3/6
f 345/3/6 344/3/6 346/3/6
f 347/3/6 348/3/6 351/3/6
f 348/2/6 349/2/6 352/2/6
f 351/3/6 348/3/6 352/3/6
f 349/3/6 350/3/6 353/3/6
f 352/2/6 349/2/6 353/2/6
f 353/3/6 350/3/6 354/3/6
f 351/2/6 352/2/6 356/2/6
f 352/2/6 353/2/6 356/2/6
f 353/2/6 354/2/6 356/2/6
f 356/2/6 354/2/6 357/2/6
f 357/2/6 354/2/6 358/2/6
f 358/2/6 354/2/6 359/2/6
f 355/3/6 356/3/6 361/3/6
f 361/3/6 356/3/6 362/3/6
f 357/2/6 358/2/6 363/2/6
f 363/2/6 358/2/6 364/2/6
f 359/3/6 360/3/6 365/3/6
f 365/3/6 360/3/6 366/3/6
f 362/3/6 363/3/6 367/3/6
f 367/3/6 363/3/6 368/3/6
f 364/3/6 365/3/6 369/3/6
f 369/3/6 365/3/6 370/3/6
f 371/3/6 372/3/6 375/3/6
f 375/3/6 372/3/6 376/3/6
f 373/3/6 374/3/6 377/3/6
f 377/3/6 374/3/6 378/3/6
