# MagicaVoxel @ Ephtracy

# group
o 

# material
mtllib portal.mtl
usemtl palette

# normals
vn -1 0 0
vn 1 0 0
vn 0 0 1
vn 0 0 -1
vn 0 -1 0
vn 0 1 0

# texcoords
vt 0.544922 0.5
vt 0.689453 0.5
vt 0.994141 0.5

# verts
v -0.5 0 0.1
v -0.5 0 -0.2
v -0.5 0.1 0.1
v -0.5 0.1 -0.2
v -0.4 0 0.4
v -0.4 0 0.3
v -0.4 0 0.2
v -0.4 0 0.1
v -0.4 0.1 0.4
v -0.4 0.1 0.3
v -0.4 0.1 0.2
v -0.4 0.1 0.1
v -0.4 0.1 0
v -0.4 0.1 -0.1
v -0.4 0.8 0
v -0.4 0.8 -0.1
v -0.3 0 -0.2
v -0.3 0 -0.4
v -0.3 0.1 -0.2
v -0.3 0.1 -0.3
v -0.3 0.1 -0.4
v -0.3 0.2 -0.3
v -0.3 0.2 -0.4
v -0.3 0.8 0
v -0.3 0.8 -0.1
v -0.3 0.9 0
v -0.3 0.9 -0.1
v -0.2 0 0.5
v -0.2 0 0.4
v -0.2 0 0.2
v -0.2 0 0
v -0.2 0.1 0.5
v -0.2 0.1 0.4
v -0.2 0.1 0.2
v -0.2 0.1 0
v -0.1 0 0.4
v -0.1 0 0.3
v -0.1 0 0
v -0.1 0 -0.1
v -0.1 0 -0.2
v -0.1 0 -0.3
v -0.1 0.1 0.4
v -0.1 0.1 0
v -0.1 0.1 -0.1
v -0.1 0.1 -0.2
v -0.1 0.1 -0.3
v -0.1 0.2 0.4
v -0.1 0.2 0.3
v -0.1 0.2 0
v -0.1 0.2 -0.1
v -0.1 0.3 0
v -0.1 0.3 -0.1
v -0.1 0.4 0
v -0.1 0.4 -0.1
v -0.1 0.5 0
v -0.1 0.5 -0.1
v -0.1 0.6 0
v -0.1 0.6 -0.1
v 0 0 0.2
v 0 0 0
v 0 0.1 0
v 0 0.2 0.2
v 0 0.2 0.1
v 0 0.2 0
v 0 0.3 0.2
v 0 0.3 0.1
v 0 0.3 0
v 0 0.4 0
v 0 0.4 -0.1
v 0 0.5 0
v 0 0.5 -0.1
v 0.1 0 0.3
v 0.1 0 0.2
v 0.1 0 0
v 0.1 0 -0.1
v 0.1 0 -0.2
v 0.1 0 -0.4
v 0.1 0.1 0.3
v 0.1 0.1 0.2
v 0.1 0.1 0
v 0.1 0.1 -0.1
v 0.1 0.1 -0.2
v 0.1 0.1 -0.4
v 0.2 0.1 0
v 0.2 0.1 -0.1
v 0.2 0.2 0
v 0.2 0.2 -0.1
v 0.2 0.3 0
v 0.2 0.3 -0.1
v 0.2 0.4 0
v 0.2 0.4 -0.1
v 0.2 0.5 0
v 0.2 0.5 -0.1
v 0.2 0.6 0
v 0.2 0.6 -0.1
v 0.2 0.7 0
v 0.2 0.7 -0.1
v 0.2 0.8 0
v 0.2 0.8 -0.1
v 0.3 0 0.2
v 0.3 0 0.1
v 0.3 0 -0.3
v 0.3 0 -0.4
v 0.3 0.1 0.2
v 0.3 0.1 0.1
v 0.3 0.1 -0.3
v 0.3 0.1 -0.4
v 0.3 0.4 0
v 0.3 0.4 -0.1
v 0.3 0.5 0
v 0.3 0.5 -0.1
v 0.3 0.6 0
v 0.3 0.6 -0.1
v 0.3 0.7 0
v 0.3 0.7 -0.1
v -0.3 0 0.4
v -0.3 0 0.3
v -0.3 0 0.2
v -0.3 0 0
v -0.3 0.1 0.4
v -0.3 0.1 0.3
v -0.3 0.1 0.2
v -0.3 0.1 0
v -0.3 0.2 0
v -0.3 0.2 -0.1
v -0.3 0.4 0
v -0.3 0.4 -0.1
v -0.3 0.6 0
v -0.3 0.6 -0.1
v -0.3 0.7 0
v -0.3 0.7 -0.1
v -0.2 0 0
v -0.2 0 -0.1
v -0.2 0 -0.2
v -0.2 0 -0.3
v -0.2 0.1 0
v -0.2 0.1 -0.1
v -0.2 0.1 -0.2
v -0.2 0.1 -0.3
v -0.2 0.1 -0.4
v -0.2 0.2 0
v -0.2 0.2 -0.1
v -0.2 0.2 -0.3
v -0.2 0.2 -0.4
v -0.2 0.4 0
v -0.2 0.4 -0.1
v -0.2 0.5 0
v -0.2 0.5 -0.1
v -0.2 0.6 0
v -0.2 0.6 -0.1
v -0.1 0 0.2
v -0.1 0 0
v -0.1 0.1 0.2
v -0.1 0.1 0
v 0 0 0.4
v 0 0 0.3
v 0 0 0
v 0 0 -0.4
v 0 0.1 0.4
v 0 0.1 0
v 0 0.1 -0.1
v 0 0.1 -0.4
v 0 0.2 0.4
v 0 0.2 0.3
v 0 0.2 0
v 0 0.2 -0.1
v 0 0.5 0
v 0 0.5 -0.1
v 0 0.6 0
v 0 0.6 -0.1
v 0 0.7 0
v 0 0.7 -0.1
v 0 0.8 0
v 0 0.8 -0.1
v 0.1 0 0.5
v 0.1 0 0.4
v 0.1 0 0.2
v 0.1 0 0
v 0.1 0.1 0.5
v 0.1 0.1 0.4
v 0.1 0.1 0.2
v 0.1 0.1 0
v 0.1 0.2 0.2
v 0.1 0.2 0.1
v 0.1 0.2 0
v 0.1 0.3 0.2
v 0.1 0.3 0.1
v 0.1 0.3 0
v 0.1 0.3 -0.1
v 0.1 0.5 0
v 0.1 0.5 -0.1
v 0.2 0 0.3
v 0.2 0 0.2
v 0.2 0 -0.2
v 0.2 0 -0.4
v 0.2 0.1 0.3
v 0.2 0.1 0.2
v 0.2 0.1 -0.2
v 0.2 0.1 -0.4
v 0.3 0.8 0
v 0.3 0.8 -0.1
v 0.3 0.9 0
v 0.3 0.9 -0.1
v 0.4 0 0.2
v 0.4 0 0.1
v 0.4 0 -0.3
v 0.4 0 -0.4
v 0.4 0.1 0.2
v 0.4 0.1 0.1
v 0.4 0.1 0
v 0.4 0.1 -0.1
v 0.4 0.1 -0.3
v 0.4 0.1 -0.4
v 0.4 0.8 0
v 0.4 0.8 -0.1
v 0.5 0 0
v 0.5 0 -0.1
v 0.5 0.1 0
v 0.5 0.1 -0.1
v -0.2 0 0.5
v -0.2 0.1 0.5
v 0.1 0 0.5
v 0.1 0.1 0.5
v -0.4 0 0.4
v -0.4 0.1 0.4
v -0.3 0 0.4
v -0.3 0.1 0.4
v -0.1 0.1 0.4
v -0.1 0.2 0.4
v 0 0.1 0.4
v 0 0.2 0.4
v 0.1 0 0.3
v 0.1 0.1 0.3
v 0.2 0 0.3
v 0.2 0.1 0.3
v -0.4 0 0.2
v -0.4 0.1 0.2
v -0.3 0 0.2
v -0.3 0.1 0.2
v -0.2 0 0.2
v -0.2 0.1 0.2
v -0.1 0 0.2
v -0.1 0.1 0.2
v 0 0 0.2
v 0 0.2 0.2
v 0 0.3 0.2
v 0.1 0 0.2
v 0.1 0.1 0.2
v 0.1 0.2 0.2
v 0.1 0.3 0.2
v 0.3 0 0.2
v 0.3 0.1 0.2
v 0.4 0 0.2
v 0.4 0.1 0.2
v -0.5 0 0.1
v -0.5 0.1 0.1
v -0.4 0 0.1
v -0.4 0.1 0.1
v -0.4 0.1 0
v -0.4 0.8 0
v -0.3 0 0
v -0.3 0.1 0
v -0.3 0.2 0
v -0.3 0.4 0
v -0.3 0.5 0
v -0.3 0.6 0
v -0.3 0.7 0
v -0.3 0.8 0
v -0.3 0.9 0
v -0.2 0 0
v -0.2 0.1 0
v -0.2 0.2 0
v -0.2 0.4 0
v -0.2 0.5 0
v -0.2 0.6 0
v -0.2 0.7 0
v -0.2 0.8 0
v -0.1 0 0
v -0.1 0.1 0
v -0.1 0.2 0
v -0.1 0.3 0
v -0.1 0.4 0
v -0.1 0.5 0
v -0.1 0.6 0
v -0.1 0.7 0
v -0.1 0.8 0
v 0 0 0
v 0 0.1 0
v 0 0.2 0
v 0 0.3 0
v 0 0.4 0
v 0 0.5 0
v 0 0.6 0
v 0 0.7 0
v 0 0.8 0
v 0.1 0 0
v 0.1 0.1 0
v 0.1 0.3 0
v 0.1 0.5 0
v 0.2 0.1 0
v 0.2 0.2 0
v 0.2 0.3 0
v 0.2 0.4 0
v 0.2 0.5 0
v 0.2 0.6 0
v 0.2 0.7 0
v 0.2 0.8 0
v 0.3 0.2 0
v 0.3 0.3 0
v 0.3 0.4 0
v 0.3 0.5 0
v 0.3 0.6 0
v 0.3 0.7 0
v 0.3 0.8 0
v 0.3 0.9 0
v 0.4 0.1 0
v 0.4 0.8 0
v 0.5 0 0
v 0.5 0.1 0
v -0.2 0 -0.1
v -0.2 0.1 -0.1
v -0.1 0 -0.1
v -0.1 0.1 -0.1
v 0.1 0 -0.2
v 0.1 0.1 -0.2
v 0.2 0 -0.2
v 0.2 0.1 -0.2
v -0.3 0.1 -0.3
v -0.3 0.2 -0.3
v -0.2 0 -0.3
v -0.2 0.1 -0.3
v -0.2 0.2 -0.3
v -0.1 0 -0.3
v -0.1 0.1 -0.3
v 0.3 0 -0.3
v 0.3 0.1 -0.3
v 0.4 0 -0.3
v 0.4 0.1 -0.3
v -0.2 0 0.4
v -0.2 0.1 0.4
v -0.1 0 0.4
v -0.1 0.1 0.4
v 0 0 0.4
v 0 0.1 0.4
v 0.1 0 0.4
v 0.1 0.1 0.4
v -0.4 0 0.3
v -0.4 0.1 0.3
v -0.3 0 0.3
v -0.3 0.1 0.3
v -0.1 0 0.3
v -0.1 0.2 0.3
v 0 0 0.3
v 0 0.2 0.3
v 0.1 0 0.2
v 0.1 0.1 0.2
v 0.2 0 0.2
v 0.2 0.1 0.2
v 0.3 0 0.1
v 0.3 0.1 0.1
v 0.4 0 0.1
v 0.4 0.1 0.1
v -0.2 0 0
v -0.2 0.1 0
v -0.1 0 0
v -0.1 0.1 0
v 0 0 0
v 0 0.1 0
v 0 0.2 0
v 0 0.3 0
v 0.1 0 0
v 0.1 0.1 0
v 0.1 0.2 0
v 0.1 0.3 0
v -0.4 0.1 -0.1
v -0.4 0.8 -0.1
v -0.3 0.2 -0.1
v -0.3 0.4 -0.1
v -0.3 0.5 -0.1
v -0.3 0.6 -0.1
v -0.3 0.7 -0.1
v -0.3 0.8 -0.1
v -0.3 0.9 -0.1
v -0.2 0.1 -0.1
v -0.2 0.2 -0.1
v -0.2 0.4 -0.1
v -0.2 0.5 -0.1
v -0.2 0.6 -0.1
v -0.2 0.7 -0.1
v -0.2 0.8 -0.1
v -0.1 0.1 -0.1
v -0.1 0.2 -0.1
v -0.1 0.3 -0.1
v -0.1 0.4 -0.1
v -0.1 0.5 -0.1
v -0.1 0.6 -0.1
v -0.1 0.7 -0.1
v -0.1 0.8 -0.1
v 0 0.1 -0.1
v 0 0.2 -0.1
v 0 0.3 -0.1
v 0 0.4 -0.1
v 0 0.5 -0.1
v 0 0.6 -0.1
v 0 0.7 -0.1
v 0 0.8 -0.1
v 0.1 0 -0.1
v 0.1 0.1 -0.1
v 0.1 0.3 -0.1
v 0.1 0.5 -0.1
v 0.2 0.1 -0.1
v 0.2 0.2 -0.1
v 0.2 0.3 -0.1
v 0.2 0.4 -0.1
v 0.2 0.5 -0.1
v 0.2 0.6 -0.1
v 0.2 0.7 -0.1
v 0.2 0.8 -0.1
v 0.3 0.2 -0.1
v 0.3 0.3 -0.1
v 0.3 0.4 -0.1
v 0.3 0.5 -0.1
v 0.3 0.6 -0.1
v 0.3 0.7 -0.1
v 0.3 0.8 -0.1
v 0.3 0.9 -0.1
v 0.4 0.1 -0.1
v 0.4 0.8 -0.1
v 0.5 0 -0.1
v 0.5 0.1 -0.1
v -0.5 0 -0.2
v -0.5 0.1 -0.2
v -0.3 0 -0.2
v -0.3 0.1 -0.2
v -0.2 0 -0.2
v -0.2 0.1 -0.2
v -0.1 0 -0.2
v -0.1 0.1 -0.2
v -0.3 0 -0.4
v -0.3 0.1 -0.4
v -0.3 0.2 -0.4
v -0.2 0 -0.4
v -0.2 0.1 -0.4
v -0.2 0.2 -0.4
v -0.1 0 -0.4
v -0.1 0.1 -0.4
v 0 0 -0.4
v 0 0.1 -0.4
v 0.1 0 -0.4
v 0.1 0.1 -0.4
v 0.2 0 -0.4
v 0.2 0.1 -0.4
v 0.3 0 -0.4
v 0.3 0.1 -0.4
v 0.4 0 -0.4
v 0.4 0.1 -0.4
v -0.2 0 0.5
v 0.1 0 0.5
v -0.4 0 0.4
v -0.3 0 0.4
v -0.2 0 0.4
v -0.1 0 0.4
v 0 0 0.4
v 0.1 0 0.4
v -0.4 0 0.3
v -0.3 0 0.3
v -0.1 0 0.3
v 0 0 0.3
v 0.1 0 0.3
v 0.2 0 0.3
v -0.4 0 0.2
v -0.3 0 0.2
v -0.2 0 0.2
v -0.1 0 0.2
v 0 0 0.2
v 0.1 0 0.2
v 0.2 0 0.2
v 0.3 0 0.2
v 0.4 0 0.2
v -0.5 0 0.1
v -0.4 0 0.1
v 0.3 0 0.1
v 0.4 0 0.1
v -0.3 0 0
v -0.2 0 0
v -0.1 0 0
v 0 0 0
v 0.1 0 0
v 0.5 0 0
v -0.2 0 -0.1
v -0.1 0 -0.1
v 0.1 0 -0.1
v 0.5 0 -0.1
v -0.5 0 -0.2
v -0.3 0 -0.2
v -0.2 0 -0.2
v -0.1 0 -0.2
v 0.1 0 -0.2
v 0.2 0 -0.2
v -0.2 0 -0.3
v -0.1 0 -0.3
v 0.3 0 -0.3
v 0.4 0 -0.3
v -0.3 0 -0.4
v -0.2 0 -0.4
v -0.1 0 -0.4
v 0 0 -0.4
v 0.1 0 -0.4
v 0.2 0 -0.4
v 0.3 0 -0.4
v 0.4 0 -0.4
v -0.1 0.3 0
v 0 0.3 0
v 0.1 0.3 0
v -0.1 0.3 -0.1
v 0 0.3 -0.1
v 0.1 0.3 -0.1
v -0.3 0.4 0
v -0.2 0.4 0
v -0.3 0.4 -0.1
v -0.2 0.4 -0.1
v -0.1 0.5 0
v 0 0.5 0
v 0.2 0.5 0
v 0.3 0.5 0
v -0.1 0.5 -0.1
v 0 0.5 -0.1
v 0.2 0.5 -0.1
v 0.3 0.5 -0.1
v -0.3 0.7 0
v -0.2 0.7 0
v -0.1 0.7 0
v 0 0.7 0
v 0.2 0.7 0
v 0.3 0.7 0
v -0.3 0.7 -0.1
v -0.2 0.7 -0.1
v -0.1 0.7 -0.1
v 0 0.7 -0.1
v 0.2 0.7 -0.1
v 0.3 0.7 -0.1
v 0 0.8 0
v 0.2 0.8 0
v 0 0.8 -0.1
v 0.2 0.8 -0.1
v -0.2 0.1 0.5
v 0.1 0.1 0.5
v -0.4 0.1 0.4
v -0.3 0.1 0.4
v -0.2 0.1 0.4
v -0.1 0.1 0.4
v 0 0.1 0.4
v 0.1 0.1 0.4
v -0.4 0.1 0.3
v -0.3 0.1 0.3
v 0.1 0.1 0.3
v 0.2 0.1 0.3
v -0.4 0.1 0.2
v -0.3 0.1 0.2
v -0.2 0.1 0.2
v -0.1 0.1 0.2
v 0.1 0.1 0.2
v 0.2 0.1 0.2
v 0.3 0.1 0.2
v 0.4 0.1 0.2
v -0.5 0.1 0.1
v -0.4 0.1 0.1
v 0.3 0.1 0.1
v 0.4 0.1 0.1
v -0.4 0.1 0
v -0.3 0.1 0
v -0.2 0.1 0
v -0.1 0.1 0
v 0.1 0.1 0
v 0.2 0.1 0
v 0.4 0.1 0
v 0.5 0.1 0
v -0.4 0.1 -0.1
v -0.2 0.1 -0.1
v -0.1 0.1 -0.1
v 0 0.1 -0.1
v 0.1 0.1 -0.1
v 0.2 0.1 -0.1
v 0.4 0.1 -0.1
v 0.5 0.1 -0.1
v -0.5 0.1 -0.2
v -0.3 0.1 -0.2
v -0.2 0.1 -0.2
v -0.1 0.1 -0.2
v 0.1 0.1 -0.2
v 0.2 0.1 -0.2
v -0.3 0.1 -0.3
v -0.2 0.1 -0.3
v -0.1 0.1 -0.3
v 0.3 0.1 -0.3
v 0.4 0.1 -0.3
v -0.2 0.1 -0.4
v -0.1 0.1 -0.4
v 0 0.1 -0.4
v 0.1 0.1 -0.4
v 0.2 0.1 -0.4
v 0.3 0.1 -0.4
v 0.4 0.1 -0.4
v -0.1 0.2 0.4
v 0 0.2 0.4
v -0.1 0.2 0.3
v 0 0.2 0.3
v -0.3 0.2 0
v -0.2 0.2 0
v -0.1 0.2 0
v 0 0.2 0
v -0.3 0.2 -0.1
v -0.2 0.2 -0.1
v -0.1 0.2 -0.1
v 0 0.2 -0.1
v -0.3 0.2 -0.3
v -0.2 0.2 -0.3
v -0.3 0.2 -0.4
v -0.2 0.2 -0.4
v 0 0.3 0.2
v 0.1 0.3 0.2
v 0 0.3 0.1
v 0.1 0.3 0.1
v 0 0.3 0
v 0.1 0.3 0
v -0.1 0.4 0
v 0 0.4 0
v 0.2 0.4 0
v 0.3 0.4 0
v -0.1 0.4 -0.1
v 0 0.4 -0.1
v 0.2 0.4 -0.1
v 0.3 0.4 -0.1
v 0 0.5 0
v 0.1 0.5 0
v 0 0.5 -0.1
v 0.1 0.5 -0.1
v -0.3 0.6 0
v -0.2 0.6 0
v -0.1 0.6 0
v 0 0.6 0
v 0.2 0.6 0
v 0.3 0.6 0
v -0.3 0.6 -0.1
v -0.2 0.6 -0.1
v -0.1 0.6 -0.1
v 0 0.6 -0.1
v 0.2 0.6 -0.1
v 0.3 0.6 -0.1
v -0.4 0.8 0
v -0.3 0.8 0
v 0.3 0.8 0
v 0.4 0.8 0
v -0.4 0.8 -0.1
v -0.3 0.8 -0.1
v 0.3 0.8 -0.1
v 0.4 0.8 -0.1
v -0.3 0.9 0
v 0.3 0.9 0
v -0.3 0.9 -0.1
v 0.3 0.9 -0.1

# faces
f 3/3/1 2/3/1 1/3/1
f 4/3/1 2/3/1 3/3/1
f 9/3/1 6/3/1 5/3/1
f 10/3/1 6/3/1 9/3/1
f 11/3/1 8/3/1 7/3/1
f 12/3/1 8/3/1 11/3/1
f 15/3/1 14/3/1 13/3/1
f 16/3/1 14/3/1 15/3/1
f 19/3/1 18/3/1 17/3/1
f 20/3/1 18/3/1 19/3/1
f 21/3/1 18/3/1 20/3/1
f 22/2/1 21/2/1 20/2/1
f 23/2/1 21/2/1 22/2/1
f 26/3/1 25/3/1 24/3/1
f 27/3/1 25/3/1 26/3/1
f 32/3/1 29/3/1 28/3/1
f 33/3/1 29/3/1 32/3/1
f 34/3/1 31/3/1 30/3/1
f 35/3/1 31/3/1 34/3/1
f 42/3/1 37/3/1 36/3/1
f 43/3/1 39/3/1 38/3/1
f 44/3/1 39/3/1 43/3/1
f 45/3/1 41/3/1 40/3/1
f 46/3/1 41/3/1 45/3/1
f 47/3/1 37/3/1 42/3/1
f 48/3/1 37/3/1 47/3/1
f 49/1/1 44/1/1 43/1/1
f 50/1/1 44/1/1 49/1/1
f 53/2/1 52/2/1 51/2/1
f 54/2/1 52/2/1 53/2/1
f 57/1/1 56/1/1 55/1/1
f 58/1/1 56/1/1 57/1/1
f 61/3/1 60/3/1 59/3/1
f 62/3/1 61/3/1 59/3/1
f 63/3/1 61/3/1 62/3/1
f 64/3/1 61/3/1 63/3/1
f 65/2/1 63/2/1 62/2/1
f 66/1/1 64/1/1 63/1/1
f 66/2/1 63/2/1 65/2/1
f 67/1/1 64/1/1 66/1/1
f 70/1/1 69/1/1 68/1/1
f 71/1/1 69/1/1 70/1/1
f 78/3/1 73/3/1 72/3/1
f 79/3/1 73/3/1 78/3/1
f 80/3/1 75/3/1 74/3/1
f 81/3/1 75/3/1 80/3/1
f 82/3/1 77/3/1 76/3/1
f 83/3/1 77/3/1 82/3/1
f 86/3/1 85/3/1 84/3/1
f 87/3/1 85/3/1 86/3/1
f 88/2/1 87/2/1 86/2/1
f 89/2/1 87/2/1 88/2/1
f 90/1/1 89/1/1 88/1/1
f 91/1/1 89/1/1 90/1/1
f 94/1/1 93/1/1 92/1/1
f 95/1/1 93/1/1 94/1/1
f 98/3/1 97/3/1 96/3/1
f 99/3/1 97/3/1 98/3/1
f 104/3/1 101/3/1 100/3/1
f 105/3/1 101/3/1 104/3/1
f 106/3/1 103/3/1 102/3/1
f 107/3/1 103/3/1 106/3/1
f 110/3/1 109/3/1 108/3/1
f 111/3/1 109/3/1 110/3/1
f 114/3/1 113/3/1 112/3/1
f 115/3/1 113/3/1 114/3/1
f 116/3/2 117/3/2 120/3/2
f 120/3/2 117/3/2 121/3/2
f 118/3/2 119/3/2 122/3/2
f 122/3/2 119/3/2 123/3/2
f 124/3/2 125/3/2 126/3/2
f 126/3/2 125/3/2 127/3/2
f 128/3/2 129/3/2 130/3/2
f 130/3/2 129/3/2 131/3/2
f 132/3/2 133/3/2 136/3/2
f 136/3/2 133/3/2 137/3/2
f 134/3/2 135/3/2 138/3/2
f 138/3/2 135/3/2 139/3/2
f 136/3/2 137/3/2 141/3/2
f 141/3/2 137/3/2 142/3/2
f 139/2/2 140/2/2 143/2/2
f 143/2/2 140/2/2 144/2/2
f 145/1/2 146/1/2 147/1/2
f 147/1/2 146/1/2 148/1/2
f 147/2/2 148/2/2 149/2/2
f 149/2/2 148/2/2 150/2/2
f 151/3/2 152/3/2 153/3/2
f 153/3/2 152/3/2 154/3/2
f 155/3/2 156/3/2 159/3/2
f 157/3/2 158/3/2 160/3/2
f 160/3/2 158/3/2 161/3/2
f 161/3/2 158/3/2 162/3/2
f 159/3/2 156/3/2 163/3/2
f 163/3/2 156/3/2 164/3/2
f 160/1/2 161/1/2 165/1/2
f 165/1/2 161/1/2 166/1/2
f 167/1/2 168/1/2 169/1/2
f 169/1/2 168/1/2 170/1/2
f 171/2/2 172/2/2 173/2/2
f 173/2/2 172/2/2 174/2/2
f 175/3/2 176/3/2 179/3/2
f 179/3/2 176/3/2 180/3/2
f 177/3/2 178/3/2 181/3/2
f 181/3/2 178/3/2 182/3/2
f 181/3/2 182/3/2 183/3/2
f 183/3/2 182/3/2 184/3/2
f 184/3/2 182/3/2 185/3/2
f 183/2/2 184/2/2 186/2/2
f 184/1/2 185/1/2 187/1/2
f 186/2/2 184/2/2 187/2/2
f 187/1/2 185/1/2 188/1/2
f 188/1/2 189/1/2 190/1/2
f 190/1/2 189/1/2 191/1/2
f 192/3/2 193/3/2 196/3/2
f 196/3/2 193/3/2 197/3/2
f 194/3/2 195/3/2 198/3/2
f 198/3/2 195/3/2 199/3/2
f 200/3/2 201/3/2 202/3/2
f 202/3/2 201/3/2 203/3/2
f 204/3/2 205/3/2 208/3/2
f 208/3/2 205/3/2 209/3/2
f 206/3/2 207/3/2 212/3/2
f 212/3/2 207/3/2 213/3/2
f 210/3/2 211/3/2 214/3/2
f 214/3/2 211/3/2 215/3/2
f 216/3/2 217/3/2 218/3/2
f 218/3/2 217/3/2 219/3/2
f 222/3/3 221/3/3 220/3/3
f 223/3/3 221/3/3 222/3/3
f 226/3/3 225/3/3 224/3/3
f 227/3/3 225/3/3 226/3/3
f 230/3/3 229/3/3 228/3/3
f 231/3/3 229/3/3 230/3/3
f 234/3/3 233/3/3 232/3/3
f 235/3/3 233/3/3 234/3/3
f 238/3/3 237/3/3 236/3/3
f 239/3/3 237/3/3 238/3/3
f 242/3/3 241/3/3 240/3/3
f 243/3/3 241/3/3 242/3/3
f 247/3/3 245/3/3 244/3/3
f 248/3/3 245/3/3 247/3/3
f 249/2/3 246/2/3 245/2/3
f 249/3/3 245/3/3 248/3/3
f 250/2/3 246/2/3 249/2/3
f 253/3/3 252/3/3 251/3/3
f 254/3/3 252/3/3 253/3/3
f 257/3/3 256/3/3 255/3/3
f 258/3/3 256/3/3 257/3/3
f 262/3/3 260/3/3 259/3/3
f 263/3/3 260/3/3 262/3/3
f 264/3/3 260/3/3 263/3/3
f 265/3/3 260/3/3 264/3/3
f 266/3/3 260/3/3 265/3/3
f 267/3/3 260/3/3 266/3/3
f 268/3/3 260/3/3 267/3/3
f 270/3/3 262/3/3 261/3/3
f 270/3/3 263/3/3 262/3/3
f 271/3/3 263/3/3 270/3/3
f 272/3/3 263/3/3 271/3/3
f 273/1/3 265/1/3 264/1/3
f 274/2/3 266/2/3 265/2/3
f 274/1/3 265/1/3 273/1/3
f 275/2/3 266/2/3 274/2/3
f 276/3/3 269/3/3 268/3/3
f 276/3/3 268/3/3 267/3/3
f 277/3/3 269/3/3 276/3/3
f 285/1/3 277/1/3 276/1/3
f 286/3/3 269/3/3 277/3/3
f 286/1/3 277/1/3 285/1/3
f 287/3/3 279/3/3 278/3/3
f 288/1/3 280/1/3 279/1/3
f 288/3/3 279/3/3 287/3/3
f 289/1/3 280/1/3 288/1/3
f 290/2/3 282/2/3 281/2/3
f 291/2/3 282/2/3 290/2/3
f 292/1/3 284/1/3 283/1/3
f 293/1/3 284/1/3 292/1/3
f 294/2/3 286/2/3 285/2/3
f 295/3/3 269/3/3 286/3/3
f 295/2/3 286/2/3 294/2/3
f 298/1/3 291/1/3 290/1/3
f 298/1/3 292/1/3 291/1/3
f 299/1/3 292/1/3 298/1/3
f 300/3/3 297/3/3 296/3/3
f 307/3/3 269/3/3 295/3/3
f 308/3/3 301/3/3 300/3/3
f 308/2/3 302/2/3 301/2/3
f 309/1/3 303/1/3 302/1/3
f 309/2/3 302/2/3 308/2/3
f 310/1/3 303/1/3 309/1/3
f 311/1/3 305/1/3 304/1/3
f 312/1/3 305/1/3 311/1/3
f 313/3/3 307/3/3 306/3/3
f 314/3/3 269/3/3 307/3/3
f 314/3/3 307/3/3 313/3/3
f 315/3/3 269/3/3 314/3/3
f 316/3/3 308/3/3 300/3/3
f 316/3/3 310/3/3 309/3/3
f 316/3/3 314/3/3 313/3/3
f 316/3/3 300/3/3 296/3/3
f 316/3/3 311/3/3 310/3/3
f 316/3/3 312/3/3 311/3/3
f 316/3/3 309/3/3 308/3/3
f 316/3/3 313/3/3 312/3/3
f 317/3/3 314/3/3 316/3/3
f 318/3/3 316/3/3 296/3/3
f 319/3/3 316/3/3 318/3/3
f 322/1/3 321/1/3 320/1/3
f 323/1/3 321/1/3 322/1/3
f 326/3/3 325/3/3 324/3/3
f 327/3/3 325/3/3 326/3/3
f 331/2/3 329/2/3 328/2/3
f 332/2/3 329/2/3 331/2/3
f 333/2/3 331/2/3 330/2/3
f 334/2/3 331/2/3 333/2/3
f 337/3/3 336/3/3 335/3/3
f 338/3/3 336/3/3 337/3/3
f 339/3/4 340/3/4 341/3/4
f 341/3/4 340/3/4 342/3/4
f 343/3/4 344/3/4 345/3/4
f 345/3/4 344/3/4 346/3/4
f 347/3/4 348/3/4 349/3/4
f 349/3/4 348/3/4 350/3/4
f 351/3/4 352/3/4 353/3/4
f 353/3/4 352/3/4 354/3/4
f 355/3/4 356/3/4 357/3/4
f 357/3/4 356/3/4 358/3/4
f 359/3/4 360/3/4 361/3/4
f 361/3/4 360/3/4 362/3/4
f 363/3/4 364/3/4 365/3/4
f 365/3/4 364/3/4 366/3/4
f 367/3/4 368/3/4 371/3/4
f 368/3/4 369/3/4 371/3/4
f 371/3/4 369/3/4 372/3/4
f 369/1/4 370/1/4 373/1/4
f 372/3/4 369/3/4 373/3/4
f 373/1/4 370/1/4 374/1/4
f 375/3/4 376/3/4 377/3/4
f 377/3/4 376/3/4 378/3/4
f 378/3/4 376/3/4 379/3/4
f 379/3/4 376/3/4 380/3/4
f 380/3/4 376/3/4 381/3/4
f 381/3/4 376/3/4 382/3/4
f 375/3/4 377/3/4 384/3/4
f 384/3/4 377/3/4 385/3/4
f 378/1/4 379/1/4 386/1/4
f 379/2/4 380/2/4 387/2/4
f 386/1/4 379/1/4 387/1/4
f 387/2/4 380/2/4 388/2/4
f 382/3/4 383/3/4 389/3/4
f 381/3/4 382/3/4 389/3/4
f 389/3/4 383/3/4 390/3/4
f 389/1/4 390/1/4 397/1/4
f 390/3/4 383/3/4 398/3/4
f 397/1/4 390/1/4 398/1/4
f 391/1/4 392/1/4 399/1/4
f 399/1/4 392/1/4 400/1/4
f 393/2/4 394/2/4 401/2/4
f 401/2/4 394/2/4 402/2/4
f 395/1/4 396/1/4 403/1/4
f 403/1/4 396/1/4 404/1/4
f 397/2/4 398/2/4 405/2/4
f 398/3/4 383/3/4 406/3/4
f 405/2/4 398/2/4 406/2/4
f 401/1/4 402/1/4 409/1/4
f 402/1/4 403/1/4 409/1/4
f 409/1/4 403/1/4 410/1/4
f 407/3/4 408/3/4 411/3/4
f 406/3/4 383/3/4 418/3/4
f 411/3/4 412/3/4 419/3/4
f 412/2/4 413/2/4 419/2/4
f 413/1/4 414/1/4 420/1/4
f 419/2/4 413/2/4 420/2/4
f 420/1/4 414/1/4 421/1/4
f 415/1/4 416/1/4 422/1/4
f 422/1/4 416/1/4 423/1/4
f 417/3/4 418/3/4 424/3/4
f 418/3/4 383/3/4 425/3/4
f 424/3/4 418/3/4 425/3/4
f 425/3/4 383/3/4 426/3/4
f 411/3/4 419/3/4 427/3/4
f 420/3/4 421/3/4 427/3/4
f 424/3/4 425/3/4 427/3/4
f 407/3/4 411/3/4 427/3/4
f 421/3/4 422/3/4 427/3/4
f 422/3/4 423/3/4 427/3/4
f 419/3/4 420/3/4 427/3/4
f 423/3/4 424/3/4 427/3/4
f 427/3/4 425/3/4 428/3/4
f 407/3/4 427/3/4 429/3/4
f 429/3/4 427/3/4 430/3/4
f 431/3/4 432/3/4 433/3/4
f 433/3/4 432/3/4 434/3/4
f 435/1/4 436/1/4 437/1/4
f 437/1/4 436/1/4 438/1/4
f 439/3/4 440/3/4 442/3/4
f 440/2/4 441/2/4 443/2/4
f 442/3/4 440/3/4 443/3/4
f 443/2/4 441/2/4 444/2/4
f 442/2/4 443/2/4 445/2/4
f 445/2/4 443/2/4 446/2/4
f 445/3/4 446/3/4 447/3/4
f 447/3/4 446/3/4 448/3/4
f 449/3/4 450/3/4 451/3/4
f 451/3/4 450/3/4 452/3/4
f 453/3/4 454/3/4 455/3/4
f 455/3/4 454/3/4 456/3/4
f 461/3/5 458/3/5 457/3/5
f 462/3/5 458/3/5 461/3/5
f 463/3/5 458/3/5 462/3/5
f 464/3/5 458/3/5 463/3/5
f 465/3/5 460/3/5 459/3/5
f 466/3/5 460/3/5 465/3/5
f 467/3/5 463/3/5 462/3/5
f 468/3/5 463/3/5 467/3/5
f 476/3/5 470/3/5 469/3/5
f 477/3/5 470/3/5 476/3/5
f 481/3/5 472/3/5 471/3/5
f 482/3/5 479/3/5 478/3/5
f 483/3/5 479/3/5 482/3/5
f 484/3/5 481/3/5 480/3/5
f 484/3/5 472/3/5 481/3/5
f 485/3/5 474/3/5 473/3/5
f 486/3/5 474/3/5 485/3/5
f 487/3/5 476/3/5 475/3/5
f 488/3/5 476/3/5 487/3/5
f 490/3/5 485/3/5 484/3/5
f 491/3/5 487/3/5 486/3/5
f 492/3/5 489/3/5 488/3/5
f 493/3/5 489/3/5 492/3/5
f 494/3/5 484/3/5 480/3/5
f 494/3/5 490/3/5 484/3/5
f 495/3/5 490/3/5 494/3/5
f 496/1/5 491/1/5 490/1/5
f 496/3/5 490/3/5 495/3/5
f 497/3/5 487/3/5 491/3/5
f 497/1/5 491/1/5 496/1/5
f 500/3/5 496/3/5 495/3/5
f 501/3/5 487/3/5 497/3/5
f 504/3/5 500/3/5 495/3/5
f 505/2/5 501/2/5 500/2/5
f 505/3/5 500/3/5 504/3/5
f 506/3/5 487/3/5 501/3/5
f 506/2/5 501/2/5 505/2/5
f 507/3/5 487/3/5 506/3/5
f 508/3/5 499/3/5 498/3/5
f 509/3/5 499/3/5 508/3/5
f 510/3/5 503/3/5 502/3/5
f 511/3/5 503/3/5 510/3/5
f 515/2/5 513/2/5 512/2/5
f 516/1/5 514/1/5 513/1/5
f 516/2/5 513/2/5 515/2/5
f 517/1/5 514/1/5 516/1/5
f 520/1/5 519/1/5 518/1/5
f 521/1/5 519/1/5 520/1/5
f 526/1/5 523/1/5 522/1/5
f 527/1/5 523/1/5 526/1/5
f 528/1/5 525/1/5 524/1/5
f 529/1/5 525/1/5 528/1/5
f 536/3/5 531/3/5 530/3/5
f 537/1/5 532/1/5 531/1/5
f 537/3/5 531/3/5 536/3/5
f 538/2/5 533/2/5 532/2/5
f 538/1/5 532/1/5 537/1/5
f 539/2/5 533/2/5 538/2/5
f 540/3/5 535/3/5 534/3/5
f 541/3/5 535/3/5 540/3/5
f 544/3/5 543/3/5 542/3/5
f 545/3/5 543/3/5 544/3/5
f 546/3/6 547/3/6 550/3/6
f 550/3/6 547/3/6 551/3/6
f 551/3/6 547/3/6 552/3/6
f 552/3/6 547/3/6 553/3/6
f 548/3/6 549/3/6 554/3/6
f 554/3/6 549/3/6 555/3/6
f 556/3/6 557/3/6 562/3/6
f 562/3/6 557/3/6 563/3/6
f 558/3/6 559/3/6 567/3/6
f 564/3/6 565/3/6 568/3/6
f 568/3/6 565/3/6 569/3/6
f 566/3/6 567/3/6 570/3/6
f 567/3/6 559/3/6 570/3/6
f 570/3/6 559/3/6 571/3/6
f 560/3/6 561/3/6 572/3/6
f 572/3/6 561/3/6 573/3/6
f 566/3/6 570/3/6 578/3/6
f 574/3/6 575/3/6 582/3/6
f 582/3/6 575/3/6 583/3/6
f 576/3/6 577/3/6 584/3/6
f 584/3/6 577/3/6 585/3/6
f 566/3/6 578/3/6 586/3/6
f 578/3/6 579/3/6 586/3/6
f 586/3/6 579/3/6 587/3/6
f 579/1/6 580/1/6 588/1/6
f 587/3/6 579/3/6 588/3/6
f 580/3/6 581/3/6 589/3/6
f 588/1/6 580/1/6 589/1/6
f 587/3/6 588/3/6 592/3/6
f 592/3/6 588/3/6 593/3/6
f 589/3/6 581/3/6 594/3/6
f 593/2/6 594/2/6 597/2/6
f 594/3/6 581/3/6 598/3/6
f 597/2/6 594/2/6 598/2/6
f 598/3/6 581/3/6 599/3/6
f 590/3/6 591/3/6 600/3/6
f 600/3/6 591/3/6 601/3/6
f 595/3/6 596/3/6 602/3/6
f 602/3/6 596/3/6 603/3/6
f 604/3/6 605/3/6 606/3/6
f 606/3/6 605/3/6 607/3/6
f 608/3/6 609/3/6 612/3/6
f 612/3/6 609/3/6 613/3/6
f 610/1/6 611/1/6 614/1/6
f 614/1/6 611/1/6 615/1/6
f 616/2/6 617/2/6 618/2/6
f 618/2/6 617/2/6 619/2/6
f 620/2/6 621/2/6 622/2/6
f 622/2/6 621/2/6 623/2/6
f 622/1/6 623/1/6 624/1/6
f 624/1/6 623/1/6 625/1/6
f 626/2/6 627/2/6 630/2/6
f 630/2/6 627/2/6 631/2/6
f 628/1/6 629/1/6 632/1/6
f 632/1/6 629/1/6 633/1/6
f 634/1/6 635/1/6 636/1/6
f 636/1/6 635/1/6 637/1/6
f 638/2/6 639/2/6 644/2/6
f 644/2/6 639/2/6 645/2/6
f 640/1/6 641/1/6 646/1/6
f 646/1/6 641/1/6 647/1/6
f 642/1/6 643/1/6 648/1/6
f 648/1/6 643/1/6 649/1/6
f 650/3/6 651/3/6 654/3/6
f 654/3/6 651/3/6 655/3/6
f 652/3/6 653/3/6 656/3/6
f 656/3/6 653/3/6 657/3/6
f 658/3/6 659/3/6 660/3/6
f 660/3/6 659/3/6 661/3/6
