# MagicaVoxel @ Ephtracy

# group
o 

# material
mtllib Monster2.mtl
usemtl palette

# normals
vn -1 0 0
vn 1 0 0
vn 0 0 1
vn 0 0 -1
vn 0 -1 0
vn 0 1 0

# texcoords
vt 0.0214844 0.5
vt 0.0917969 0.5
vt 0.138672 0.5
vt 0.955078 0.5

# verts
v -0.4 0.3 0
v -0.4 0.3 -0.1
v -0.4 0.5 0
v -0.4 0.5 -0.1
v -0.2 0.1 0.2
v -0.2 0.1 -0.2
v -0.2 0.2 0.2
v -0.2 0.2 0.1
v -0.2 0.3 0.2
v -0.2 0.3 0.1
v -0.2 0.3 0
v -0.2 0.3 -0.1
v -0.2 0.4 0.2
v -0.2 0.4 0
v -0.2 0.4 -0.1
v -0.2 0.4 -0.2
v -0.2 0.6 0
v -0.2 0.6 -0.1
v -0.2 0.8 0
v -0.2 0.8 -0.1
v -0.1 0 0.1
v -0.1 0 -0.1
v -0.1 0.1 0.1
v -0.1 0.1 -0.1
v -0.1 0.4 0.1
v -0.1 0.4 -0.1
v -0.1 0.5 0.1
v -0.1 0.5 0
v -0.1 0.6 0
v -0.1 0.6 -0.1
v 0.1 0.7 0
v 0.1 0.7 -0.1
v 0.1 0.8 0
v 0.1 0.8 -0.1
v 0.3 0.4 0
v 0.3 0.4 -0.1
v 0.3 0.5 0
v 0.3 0.5 -0.1
v -0.3 0.4 0
v -0.3 0.4 -0.1
v -0.3 0.5 0
v -0.3 0.5 -0.1
v -0.1 0.7 0
v -0.1 0.7 -0.1
v -0.1 0.8 0
v -0.1 0.8 -0.1
v 0.1 0 0.1
v 0.1 0 -0.1
v 0.1 0.1 0.1
v 0.1 0.1 -0.1
v 0.1 0.4 0.1
v 0.1 0.4 -0.1
v 0.1 0.5 0.1
v 0.1 0.5 0
v 0.1 0.6 0
v 0.1 0.6 -0.1
v 0.2 0.1 0.2
v 0.2 0.1 -0.2
v 0.2 0.2 0.2
v 0.2 0.2 0.1
v 0.2 0.3 0.2
v 0.2 0.3 0.1
v 0.2 0.3 0
v 0.2 0.3 -0.1
v 0.2 0.4 0.2
v 0.2 0.4 0
v 0.2 0.4 -0.1
v 0.2 0.4 -0.2
v 0.2 0.6 0
v 0.2 0.6 -0.1
v 0.2 0.8 0
v 0.2 0.8 -0.1
v 0.4 0.3 0
v 0.4 0.3 -0.1
v 0.4 0.5 0
v 0.4 0.5 -0.1
v -0.2 0.1 0.2
v -0.2 0.2 0.2
v -0.2 0.3 0.2
v -0.2 0.4 0.2
v -0.1 0.2 0.2
v -0.1 0.3 0.2
v 0.1 0.2 0.2
v 0.1 0.3 0.2
v 0.2 0.1 0.2
v 0.2 0.2 0.2
v 0.2 0.3 0.2
v 0.2 0.4 0.2
v -0.1 0 0.1
v -0.1 0.1 0.1
v -0.1 0.4 0.1
v -0.1 0.5 0.1
v 0.1 0 0.1
v 0.1 0.1 0.1
v 0.1 0.4 0.1
v 0.1 0.5 0.1
v -0.4 0.3 0
v -0.4 0.5 0
v -0.3 0.4 0
v -0.3 0.5 0
v -0.2 0.3 0
v -0.2 0.4 0
v -0.2 0.6 0
v -0.2 0.8 0
v -0.1 0.5 0
v -0.1 0.6 0
v -0.1 0.7 0
v -0.1 0.8 0
v 0.1 0.5 0
v 0.1 0.6 0
v 0.1 0.7 0
v 0.1 0.8 0
v 0.2 0.3 0
v 0.2 0.4 0
v 0.2 0.6 0
v 0.2 0.8 0
v 0.3 0.4 0
v 0.3 0.5 0
v 0.4 0.3 0
v 0.4 0.5 0
v -0.4 0.3 -0.1
v -0.4 0.5 -0.1
v -0.3 0.4 -0.1
v -0.3 0.5 -0.1
v -0.2 0.3 -0.1
v -0.2 0.4 -0.1
v -0.2 0.6 -0.1
v -0.2 0.8 -0.1
v -0.1 0 -0.1
v -0.1 0.1 -0.1
v -0.1 0.4 -0.1
v -0.1 0.6 -0.1
v -0.1 0.7 -0.1
v -0.1 0.8 -0.1
v 0.1 0 -0.1
v 0.1 0.1 -0.1
v 0.1 0.4 -0.1
v 0.1 0.6 -0.1
v 0.1 0.7 -0.1
v 0.1 0.8 -0.1
v 0.2 0.3 -0.1
v 0.2 0.4 -0.1
v 0.2 0.6 -0.1
v 0.2 0.8 -0.1
v 0.3 0.4 -0.1
v 0.3 0.5 -0.1
v 0.4 0.3 -0.1
v 0.4 0.5 -0.1
v -0.2 0.1 -0.2
v -0.2 0.4 -0.2
v 0.2 0.1 -0.2
v 0.2 0.4 -0.2
v -0.1 0 0.1
v 0.1 0 0.1
v -0.1 0 -0.1
v 0.1 0 -0.1
v -0.2 0.1 0.2
v 0.2 0.1 0.2
v -0.1 0.1 0.1
v 0.1 0.1 0.1
v -0.1 0.1 -0.1
v 0.1 0.1 -0.1
v -0.2 0.1 -0.2
v 0.2 0.1 -0.2
v -0.4 0.3 0
v -0.2 0.3 0
v 0.2 0.3 0
v 0.4 0.3 0
v -0.4 0.3 -0.1
v -0.2 0.3 -0.1
v 0.2 0.3 -0.1
v 0.4 0.3 -0.1
v -0.2 0.6 0
v -0.1 0.6 0
v 0.1 0.6 0
v 0.2 0.6 0
v -0.2 0.6 -0.1
v -0.1 0.6 -0.1
v 0.1 0.6 -0.1
v 0.2 0.6 -0.1
v -0.2 0.4 0.2
v 0.2 0.4 0.2
v -0.1 0.4 0.1
v 0.1 0.4 0.1
v -0.3 0.4 0
v -0.2 0.4 0
v 0.2 0.4 0
v 0.3 0.4 0
v -0.3 0.4 -0.1
v -0.2 0.4 -0.1
v -0.1 0.4 -0.1
v 0.1 0.4 -0.1
v 0.2 0.4 -0.1
v 0.3 0.4 -0.1
v -0.2 0.4 -0.2
v 0.2 0.4 -0.2
v -0.1 0.5 0.1
v 0.1 0.5 0.1
v -0.4 0.5 0
v -0.3 0.5 0
v -0.1 0.5 0
v 0.1 0.5 0
v 0.3 0.5 0
v 0.4 0.5 0
v -0.4 0.5 -0.1
v -0.3 0.5 -0.1
v 0.3 0.5 -0.1
v 0.4 0.5 -0.1
v -0.1 0.7 0
v 0.1 0.7 0
v -0.1 0.7 -0.1
v 0.1 0.7 -0.1
v -0.2 0.8 0
v -0.1 0.8 0
v 0.1 0.8 0
v 0.2 0.8 0
v -0.2 0.8 -0.1
v -0.1 0.8 -0.1
v 0.1 0.8 -0.1
v 0.2 0.8 -0.1

# faces
f 3/3/1 2/3/1 1/3/1
f 4/3/1 2/3/1 3/3/1
f 7/2/1 6/2/1 5/2/1
f 8/2/1 6/2/1 7/2/1
f 9/4/1 8/4/1 7/4/1
f 10/2/1 6/2/1 8/2/1
f 10/4/1 8/4/1 9/4/1
f 11/2/1 6/2/1 10/2/1
f 12/2/1 6/2/1 11/2/1
f 13/2/1 10/2/1 9/2/1
f 13/2/1 11/2/1 10/2/1
f 14/2/1 11/2/1 13/2/1
f 15/2/1 6/2/1 12/2/1
f 16/2/1 6/2/1 15/2/1
f 19/1/1 18/1/1 17/1/1
f 20/1/1 18/1/1 19/1/1
f 23/2/1 22/2/1 21/2/1
f 24/2/1 22/2/1 23/2/1
f 27/1/1 26/1/1 25/1/1
f 28/1/1 26/1/1 27/1/1
f 29/1/1 26/1/1 28/1/1
f 30/1/1 26/1/1 29/1/1
f 33/1/1 32/1/1 31/1/1
f 34/1/1 32/1/1 33/1/1
f 37/3/1 36/3/1 35/3/1
f 38/3/1 36/3/1 37/3/1
f 39/3/2 40/3/2 41/3/2
f 41/3/2 40/3/2 42/3/2
f 43/1/2 44/1/2 45/1/2
f 45/1/2 44/1/2 46/1/2
f 47/2/2 48/2/2 49/2/2
f 49/2/2 48/2/2 50/2/2
f 51/1/2 52/1/2 53/1/2
f 53/1/2 52/1/2 54/1/2
f 54/1/2 52/1/2 55/1/2
f 55/1/2 52/1/2 56/1/2
f 57/2/2 58/2/2 59/2/2
f 59/2/2 58/2/2 60/2/2
f 59/4/2 60/4/2 61/4/2
f 60/2/2 58/2/2 62/2/2
f 61/4/2 60/4/2 62/4/2
f 62/2/2 58/2/2 63/2/2
f 63/2/2 58/2/2 64/2/2
f 61/2/2 62/2/2 65/2/2
f 62/2/2 63/2/2 65/2/2
f 65/2/2 63/2/2 66/2/2
f 64/2/2 58/2/2 67/2/2
f 67/2/2 58/2/2 68/2/2
f 69/1/2 70/1/2 71/1/2
f 71/1/2 70/1/2 72/1/2
f 73/3/2 74/3/2 75/3/2
f 75/3/2 74/3/2 76/3/2
f 81/2/3 78/2/3 77/2/3
f 81/4/3 79/4/3 78/4/3
f 82/2/3 80/2/3 79/2/3
f 82/4/3 79/4/3 81/4/3
f 83/2/3 81/2/3 77/2/3
f 83/2/3 82/2/3 81/2/3
f 84/2/3 80/2/3 82/2/3
f 84/2/3 82/2/3 83/2/3
f 85/2/3 83/2/3 77/2/3
f 86/4/3 84/4/3 83/4/3
f 86/2/3 83/2/3 85/2/3
f 87/2/3 80/2/3 84/2/3
f 87/4/3 84/4/3 86/4/3
f 88/2/3 80/2/3 87/2/3
f 93/2/3 90/2/3 89/2/3
f 94/2/3 90/2/3 93/2/3
f 95/1/3 92/1/3 91/1/3
f 96/1/3 92/1/3 95/1/3
f 99/3/3 98/3/3 97/3/3
f 100/3/3 98/3/3 99/3/3
f 101/3/3 99/3/3 97/3/3
f 102/3/3 99/3/3 101/3/3
f 106/1/3 104/1/3 103/1/3
f 107/1/3 104/1/3 106/1/3
f 108/1/3 104/1/3 107/1/3
f 109/1/3 106/1/3 105/1/3
f 109/1/3 107/1/3 106/1/3
f 110/1/3 107/1/3 109/1/3
f 111/1/3 107/1/3 110/1/3
f 115/1/3 112/1/3 111/1/3
f 115/1/3 111/1/3 110/1/3
f 116/1/3 112/1/3 115/1/3
f 117/3/3 114/3/3 113/3/3
f 119/3/3 117/3/3 113/3/3
f 119/3/3 118/3/3 117/3/3
f 120/3/3 118/3/3 119/3/3
f 121/3/4 122/3/4 123/3/4
f 123/3/4 122/3/4 124/3/4
f 121/3/4 123/3/4 125/3/4
f 125/3/4 123/3/4 126/3/4
f 127/1/4 128/1/4 132/1/4
f 132/1/4 128/1/4 133/1/4
f 133/1/4 128/1/4 134/1/4
f 129/2/4 130/2/4 135/2/4
f 135/2/4 130/2/4 136/2/4
f 131/1/4 132/1/4 137/1/4
f 132/1/4 133/1/4 137/1/4
f 137/1/4 133/1/4 138/1/4
f 138/1/4 133/1/4 139/1/4
f 139/1/4 140/1/4 143/1/4
f 138/1/4 139/1/4 143/1/4
f 143/1/4 140/1/4 144/1/4
f 141/3/4 142/3/4 145/3/4
f 141/3/4 145/3/4 147/3/4
f 145/3/4 146/3/4 147/3/4
f 147/3/4 146/3/4 148/3/4
f 149/2/4 150/2/4 151/2/4
f 151/2/4 150/2/4 152/2/4
f 155/2/5 154/2/5 153/2/5
f 156/2/5 154/2/5 155/2/5
f 159/2/5 158/2/5 157/2/5
f 160/2/5 158/2/5 159/2/5
f 161/2/5 159/2/5 157/2/5
f 162/2/5 158/2/5 160/2/5
f 163/2/5 161/2/5 157/2/5
f 163/2/5 162/2/5 161/2/5
f 164/2/5 158/2/5 162/2/5
f 164/2/5 162/2/5 163/2/5
f 169/3/5 166/3/5 165/3/5
f 170/3/5 166/3/5 169/3/5
f 171/3/5 168/3/5 167/3/5
f 172/3/5 168/3/5 171/3/5
f 177/1/5 174/1/5 173/1/5
f 178/1/5 174/1/5 177/1/5
f 179/1/5 176/1/5 175/1/5
f 180/1/5 176/1/5 179/1/5
f 181/2/6 182/2/6 183/2/6
f 183/2/6 182/2/6 184/2/6
f 181/2/6 183/2/6 186/2/6
f 184/2/6 182/2/6 187/2/6
f 185/3/6 186/3/6 189/3/6
f 186/2/6 183/2/6 190/2/6
f 189/3/6 186/3/6 190/3/6
f 190/2/6 183/2/6 191/2/6
f 184/2/6 187/2/6 192/2/6
f 187/3/6 188/3/6 193/3/6
f 192/2/6 187/2/6 193/2/6
f 193/3/6 188/3/6 194/3/6
f 191/2/6 192/2/6 195/2/6
f 190/2/6 191/2/6 195/2/6
f 192/2/6 193/2/6 195/2/6
f 195/2/6 193/2/6 196/2/6
f 197/1/6 198/1/6 201/1/6
f 201/1/6 198/1/6 202/1/6
f 199/3/6 200/3/6 205/3/6
f 205/3/6 200/3/6 206/3/6
f 203/3/6 204/3/6 207/3/6
f 207/3/6 204/3/6 208/3/6
f 209/1/6 210/1/6 211/1/6
f 211/1/6 210/1/6 212/1/6
f 213/1/6 214/1/6 217/1/6
f 217/1/6 214/1/6 218/1/6
f 215/1/6 216/1/6 219/1/6
f 219/1/6 216/1/6 220/1/6
