# MagicaVoxel @ Ephtracy

# group
o 

# material
mtllib Bullet2.mtl
usemtl palette

# normals
vn -1 0 0
vn 1 0 0
vn 0 0 1
vn 0 0 -1
vn 0 -1 0
vn 0 1 0

# texcoords
vt 0.798828 0.5
vt 0.919922 0.5
vt 0.962891 0.5

# verts
v -0.1 0 -0.1
v -0.1 0 -0.2
v -0.1 0.1 0
v -0.1 0.1 -0.1
v -0.1 0.1 -0.2
v -0.1 0.2 0
v -0.1 0.2 -0.1
v -0.1 0.2 -0.2
v -0.1 0.3 -0.1
v -0.1 0.3 -0.2
v 0 0 0
v 0 0 -0.1
v 0 0.1 0.1
v 0 0.1 0
v 0 0.1 -0.1
v 0 0.1 -0.2
v 0 0.2 0.1
v 0 0.2 0
v 0 0.2 -0.1
v 0 0.2 -0.2
v 0 0.3 0
v 0 0.3 -0.1
v 0.1 0 -0.1
v 0.1 0 -0.2
v 0.1 0.1 -0.1
v 0.1 0.1 -0.2
v 0.1 0.2 -0.1
v 0.1 0.2 -0.2
v 0.1 0.3 -0.1
v 0.1 0.3 -0.2
v 0 0 -0.1
v 0 0 -0.2
v 0 0.1 -0.1
v 0 0.1 -0.2
v 0 0.2 -0.1
v 0 0.2 -0.2
v 0 0.3 -0.1
v 0 0.3 -0.2
v 0.1 0 0
v 0.1 0 -0.1
v 0.1 0.1 0.1
v 0.1 0.1 0
v 0.1 0.1 -0.1
v 0.1 0.1 -0.2
v 0.1 0.2 0.1
v 0.1 0.2 0
v 0.1 0.2 -0.1
v 0.1 0.2 -0.2
v 0.1 0.3 0
v 0.1 0.3 -0.1
v 0.2 0 -0.1
v 0.2 0 -0.2
v 0.2 0.1 0
v 0.2 0.1 -0.1
v 0.2 0.1 -0.2
v 0.2 0.2 0
v 0.2 0.2 -0.1
v 0.2 0.2 -0.2
v 0.2 0.3 -0.1
v 0.2 0.3 -0.2
v 0 0.1 0.1
v 0 0.2 0.1
v 0.1 0.1 0.1
v 0.1 0.2 0.1
v -0.1 0.1 0
v -0.1 0.2 0
v 0 0 0
v 0 0.1 0
v 0 0.2 0
v 0 0.3 0
v 0.1 0 0
v 0.1 0.1 0
v 0.1 0.2 0
v 0.1 0.3 0
v 0.2 0.1 0
v 0.2 0.2 0
v -0.1 0 -0.1
v -0.1 0.1 -0.1
v -0.1 0.2 -0.1
v -0.1 0.3 -0.1
v 0 0 -0.1
v 0 0.1 -0.1
v 0 0.2 -0.1
v 0 0.3 -0.1
v 0.1 0 -0.1
v 0.1 0.1 -0.1
v 0.1 0.2 -0.1
v 0.1 0.3 -0.1
v 0.2 0 -0.1
v 0.2 0.1 -0.1
v 0.2 0.2 -0.1
v 0.2 0.3 -0.1
v -0.1 0.1 -0.1
v -0.1 0.2 -0.1
v 0 0 -0.1
v 0 0.1 -0.1
v 0 0.2 -0.1
v 0 0.3 -0.1
v 0.1 0 -0.1
v 0.1 0.1 -0.1
v 0.1 0.2 -0.1
v 0.1 0.3 -0.1
v 0.2 0.1 -0.1
v 0.2 0.2 -0.1
v -0.1 0 -0.2
v -0.1 0.1 -0.2
v -0.1 0.2 -0.2
v -0.1 0.3 -0.2
v 0 0 -0.2
v 0 0.1 -0.2
v 0 0.2 -0.2
v 0 0.3 -0.2
v 0.1 0 -0.2
v 0.1 0.1 -0.2
v 0.1 0.2 -0.2
v 0.1 0.3 -0.2
v 0.2 0 -0.2
v 0.2 0.1 -0.2
v 0.2 0.2 -0.2
v 0.2 0.3 -0.2
v 0 0 0
v 0.1 0 0
v -0.1 0 -0.1
v 0 0 -0.1
v 0.1 0 -0.1
v 0.2 0 -0.1
v -0.1 0 -0.2
v 0 0 -0.2
v 0.1 0 -0.2
v 0.2 0 -0.2
v 0 0.1 0.1
v 0.1 0.1 0.1
v -0.1 0.1 0
v 0 0.1 0
v 0.1 0.1 0
v 0.2 0.1 0
v -0.1 0.1 -0.1
v 0 0.1 -0.1
v 0.1 0.1 -0.1
v 0.2 0.1 -0.1
v 0 0.1 -0.2
v 0.1 0.1 -0.2
v -0.1 0.2 -0.1
v 0 0.2 -0.1
v 0.1 0.2 -0.1
v 0.2 0.2 -0.1
v -0.1 0.2 -0.2
v 0 0.2 -0.2
v 0.1 0.2 -0.2
v 0.2 0.2 -0.2
v -0.1 0.1 -0.1
v 0 0.1 -0.1
v 0.1 0.1 -0.1
v 0.2 0.1 -0.1
v -0.1 0.1 -0.2
v 0 0.1 -0.2
v 0.1 0.1 -0.2
v 0.2 0.1 -0.2
v 0 0.2 0.1
v 0.1 0.2 0.1
v -0.1 0.2 0
v 0 0.2 0
v 0.1 0.2 0
v 0.2 0.2 0
v -0.1 0.2 -0.1
v 0 0.2 -0.1
v 0.1 0.2 -0.1
v 0.2 0.2 -0.1
v 0 0.2 -0.2
v 0.1 0.2 -0.2
v 0 0.3 0
v 0.1 0.3 0
v -0.1 0.3 -0.1
v 0 0.3 -0.1
v 0.1 0.3 -0.1
v 0.2 0.3 -0.1
v -0.1 0.3 -0.2
v 0 0.3 -0.2
v 0.1 0.3 -0.2
v 0.2 0.3 -0.2

# faces
f 4/1/1 2/1/1 1/1/1
f 5/1/1 2/1/1 4/1/1
f 6/3/1 4/3/1 3/3/1
f 7/3/1 4/3/1 6/3/1
f 9/1/1 8/1/1 7/1/1
f 10/1/1 8/1/1 9/1/1
f 14/3/1 12/3/1 11/3/1
f 15/3/1 12/3/1 14/3/1
f 17/2/1 14/2/1 13/2/1
f 18/2/1 14/2/1 17/2/1
f 19/2/1 16/2/1 15/2/1
f 20/2/1 16/2/1 19/2/1
f 21/3/1 19/3/1 18/3/1
f 22/3/1 19/3/1 21/3/1
f 25/1/1 24/1/1 23/1/1
f 26/1/1 24/1/1 25/1/1
f 29/1/1 28/1/1 27/1/1
f 30/1/1 28/1/1 29/1/1
f 31/1/2 32/1/2 33/1/2
f 33/1/2 32/1/2 34/1/2
f 35/1/2 36/1/2 37/1/2
f 37/1/2 36/1/2 38/1/2
f 39/3/2 40/3/2 42/3/2
f 42/3/2 40/3/2 43/3/2
f 41/2/2 42/2/2 45/2/2
f 45/2/2 42/2/2 46/2/2
f 43/2/2 44/2/2 47/2/2
f 47/2/2 44/2/2 48/2/2
f 46/3/2 47/3/2 49/3/2
f 49/3/2 47/3/2 50/3/2
f 51/1/2 52/1/2 54/1/2
f 54/1/2 52/1/2 55/1/2
f 53/3/2 54/3/2 56/3/2
f 56/3/2 54/3/2 57/3/2
f 57/1/2 58/1/2 59/1/2
f 59/1/2 58/1/2 60/1/2
f 63/2/3 62/2/3 61/2/3
f 64/2/3 62/2/3 63/2/3
f 68/3/3 66/3/3 65/3/3
f 69/3/3 66/3/3 68/3/3
f 71/3/3 68/3/3 67/3/3
f 72/3/3 68/3/3 71/3/3
f 73/3/3 70/3/3 69/3/3
f 74/3/3 70/3/3 73/3/3
f 75/3/3 73/3/3 72/3/3
f 76/3/3 73/3/3 75/3/3
f 81/1/3 78/1/3 77/1/3
f 82/1/3 78/1/3 81/1/3
f 83/1/3 80/1/3 79/1/3
f 84/1/3 80/1/3 83/1/3
f 89/1/3 86/1/3 85/1/3
f 90/1/3 86/1/3 89/1/3
f 91/1/3 88/1/3 87/1/3
f 92/1/3 88/1/3 91/1/3
f 93/3/4 94/3/4 96/3/4
f 96/3/4 94/3/4 97/3/4
f 95/3/4 96/3/4 99/3/4
f 99/3/4 96/3/4 100/3/4
f 97/3/4 98/3/4 101/3/4
f 101/3/4 98/3/4 102/3/4
f 100/3/4 101/3/4 103/3/4
f 103/3/4 101/3/4 104/3/4
f 105/1/4 106/1/4 109/1/4
f 109/1/4 106/1/4 110/1/4
f 107/1/4 108/1/4 111/1/4
f 111/1/4 108/1/4 112/1/4
f 110/2/4 111/2/4 114/2/4
f 114/2/4 111/2/4 115/2/4
f 113/1/4 114/1/4 117/1/4
f 117/1/4 114/1/4 118/1/4
f 115/1/4 116/1/4 119/1/4
f 119/1/4 116/1/4 120/1/4
f 124/3/5 122/3/5 121/3/5
f 125/3/5 122/3/5 124/3/5
f 127/1/5 124/1/5 123/1/5
f 128/1/5 124/1/5 127/1/5
f 129/1/5 126/1/5 125/1/5
f 130/1/5 126/1/5 129/1/5
f 134/2/5 132/2/5 131/2/5
f 135/2/5 132/2/5 134/2/5
f 137/3/5 134/3/5 133/3/5
f 138/3/5 134/3/5 137/3/5
f 139/3/5 136/3/5 135/3/5
f 140/3/5 136/3/5 139/3/5
f 141/2/5 139/2/5 138/2/5
f 142/2/5 139/2/5 141/2/5
f 147/1/5 144/1/5 143/1/5
f 148/1/5 144/1/5 147/1/5
f 149/1/5 146/1/5 145/1/5
f 150/1/5 146/1/5 149/1/5
f 151/1/6 152/1/6 155/1/6
f 155/1/6 152/1/6 156/1/6
f 153/1/6 154/1/6 157/1/6
f 157/1/6 154/1/6 158/1/6
f 159/2/6 160/2/6 162/2/6
f 162/2/6 160/2/6 163/2/6
f 161/3/6 162/3/6 165/3/6
f 165/3/6 162/3/6 166/3/6
f 163/3/6 164/3/6 167/3/6
f 167/3/6 164/3/6 168/3/6
f 166/2/6 167/2/6 169/2/6
f 169/2/6 167/2/6 170/2/6
f 171/3/6 172/3/6 174/3/6
f 174/3/6 172/3/6 175/3/6
f 173/1/6 174/1/6 177/1/6
f 177/1/6 174/1/6 178/1/6
f 175/1/6 176/1/6 179/1/6
f 179/1/6 176/1/6 180/1/6
